<svg xmlns="http://www.w3.org/2000/svg" viewBox="0 0 84.5 84.5"><path d="M 72.250000 42.250000C 72.250000 34.293505,69.089295 26.662888,63.463203 21.036797C 57.837112 15.410705,50.206495 12.250000,42.250000 12.250000C 34.293505 12.250000,26.662888 15.410705,21.036797 21.036797C 15.410705 26.662888,12.250000 34.293505,12.250000 42.250000C 12.250000 50.206495,15.410705 57.837112,21.036797 63.463203C 26.662888 69.089295,34.293505 72.250000,42.250000 72.250000C 50.206495 72.250000,57.837112 69.089295,63.463203 63.463203C 69.089295 57.837112,72.250000 50.206495,72.250000 42.250000Z" fill="none" stroke="gray" stroke-width="0.50" stroke-linecap="round" stroke-linejoin="round"/><path d="M 74.250000 42.250000C 74.250000 41.719567,74.039286 41.210859,73.664214 40.835786C 73.289141 40.460714,72.780433 40.250000,72.250000 40.250000C 71.719567 40.250000,71.210859 40.460714,70.835786 40.835786C 70.460714 41.210859,70.250000 41.719567,70.250000 42.250000C 70.250000 42.780433,70.460714 43.289141,70.835786 43.664214C 71.210859 44.039286,71.719567 44.250000,72.250000 44.250000C 72.780433 44.250000,73.289141 44.039286,73.664214 43.664214C 74.039286 43.289141,74.250000 42.780433,74.250000 42.250000Z" fill="blue" stroke="black" stroke-width="0.50" stroke-linecap="round" stroke-linejoin="round"/><path d="M 65.463203 21.036797C 65.463203 20.506364,65.252490 19.997656,64.877417 19.622583C 64.502344 19.247510,63.993636 19.036797,63.463203 19.036797C 62.932770 19.036797,62.424063 19.247510,62.048990 19.622583C 61.673917 19.997656,61.463203 20.506364,61.463203 21.036797C 61.463203 21.567230,61.673917 22.075937,62.048990 22.451010C 62.424063 22.826083,62.932770 23.036797,63.463203 23.036797C 63.993636 23.036797,64.502344 22.826083,64.877417 22.451010C 65.252490 22.075937,65.463203 21.567230,65.463203 21.036797Z" fill="blue" stroke="black" stroke-width="0.50" stroke-linecap="round" stroke-linejoin="round"/><path d="M 44.250000 12.250000C 44.250000 11.719567,44.039286 11.210859,43.664214 10.835786C 43.289141 10.460714,42.780433 10.250000,42.250000 10.250000C 41.719567 10.250000,41.210859 10.460714,40.835786 10.835786C 40.460714 11.210859,40.250000 11.719567,40.250000 12.250000C 40.250000 12.780433,40.460714 13.289141,40.835786 13.664214C 41.210859 14.039286,41.719567 14.250000,42.250000 14.250000C 42.780433 14.250000,43.289141 14.039286,43.664214 13.664214C 44.039286 13.289141,44.250000 12.780433,44.250000 12.250000Z" fill="blue" stroke="black" stroke-width="0.50" stroke-linecap="round" stroke-linejoin="round"/><path d="M 23.036797 21.036797C 23.036797 20.506364,22.826083 19.997656,22.451010 19.622583C 22.075937 19.247510,21.567230 19.036797,21.036797 19.036797C 20.506364 19.036797,19.997656 19.247510,19.622583 19.622583C 19.247510 19.997656,19.036797 20.506364,19.036797 21.036797C 19.036797 21.567230,19.247510 22.075937,19.622583 22.451010C 19.997656 22.826083,20.506364 23.036797,21.036797 23.036797C 21.567230 23.036797,22.075937 22.826083,22.451010 22.451010C 22.826083 22.075937,23.036797 21.567230,23.036797 21.036797Z" fill="blue" stroke="black" stroke-width="0.50" stroke-linecap="round" stroke-linejoin="round"/><path d="M 14.250000 42.250000C 14.250000 41.719567,14.039286 41.210859,13.664214 40.835786C 13.289141 40.460714,12.780433 40.250000,12.250000 40.250000C 11.719567 40.250000,11.210859 40.460714,10.835786 40.835786C 10.460714 41.210859,10.250000 41.719567,10.250000 42.250000C 10.250000 42.780433,10.460714 43.289141,10.835786 43.664214C 11.210859 44.039286,11.719567 44.250000,12.250000 44.250000C 12.780433 44.250000,13.289141 44.039286,13.664214 43.664214C 14.039286 43.289141,14.250000 42.780433,14.250000 42.250000Z" fill="blue" stroke="black" stroke-width="0.50" stroke-linecap="round" stroke-linejoin="round"/><path d="M 23.036797 63.463203C 23.036797 62.932770,22.826083 62.424063,22.451010 62.048990C 22.075937 61.673917,21.567230 61.463203,21.036797 61.463203C 20.506364 61.463203,19.997656 61.673917,19.622583 62.048990C 19.247510 62.424063,19.036797 62.932770,19.036797 63.463203C 19.036797 63.993636,19.247510 64.502344,19.622583 64.877417C 19.997656 65.252490,20.506364 65.463203,21.036797 65.463203C 21.567230 65.463203,22.075937 65.252490,22.451010 64.877417C 22.826083 64.502344,23.036797 63.993636,23.036797 63.463203Z" fill="blue" stroke="black" stroke-width="0.50" stroke-linecap="round" stroke-linejoin="round"/><path d="M 44.250000 72.250000C 44.250000 71.719567,44.039286 71.210859,43.664214 70.835786C 43.289141 70.460714,42.780433 70.250000,42.250000 70.250000C 41.719567 70.250000,41.210859 70.460714,40.835786 70.835786C 40.460714 71.210859,40.250000 71.719567,40.250000 72.250000C 40.250000 72.780433,40.460714 73.289141,40.835786 73.664214C 41.210859 74.039286,41.719567 74.250000,42.250000 74.250000C 42.780433 74.250000,43.289141 74.039286,43.664214 73.664214C 44.039286 73.289141,44.250000 72.780433,44.250000 72.250000Z" fill="blue" stroke="black" stroke-width="0.50" stroke-linecap="round" stroke-linejoin="round"/><path d="M 65.463203 63.463203C 65.463203 62.932770,65.252490 62.424063,64.877417 62.048990C 64.502344 61.673917,63.993636 61.463203,63.463203 61.463203C 62.932770 61.463203,62.424063 61.673917,62.048990 62.048990C 61.673917 62.424063,61.463203 62.932770,61.463203 63.463203C 61.463203 63.993636,61.673917 64.502344,62.048990 64.877417C 62.424063 65.252490,62.932770 65.463203,63.463203 65.463203C 63.993636 65.463203,64.502344 65.252490,64.877417 64.877417C 65.252490 64.502344,65.463203 63.993636,65.463203 63.463203Z" fill="blue" stroke="black" stroke-width="0.50" stroke-linecap="round" stroke-linejoin="round"/></svg>
