<svg xmlns="http://www.w3.org/2000/svg" width="64.54339158797245" height="64.54339158797237" viewBox="0 0 64.54339158797245 64.54339158797237"><path d="M 62.271696 32.271696C 62.271696 15.703153,65.200628 22.774221,53.484899 11.058492C 41.769170 -0.657236,48.840238 2.271696,32.271696 2.271696C 15.703153 2.271696,22.774221 -0.657236,11.058492 11.058492C -0.657236 22.774221,2.271696 15.703153,2.271696 32.271696C 2.271696 48.840238,-0.657236 41.769170,11.058492 53.484899C 22.774221 65.200628,15.703153 62.271696,32.271696 62.271696C 48.840238 62.271696,41.769170 65.200628,53.484899 53.484899C 65.200628 41.769170,62.271696 48.840238,62.271696 32.271696Z" fill="none" stroke="gray" stroke-width="0.50" stroke-linecap="round" stroke-linejoin="round"/><path d="M 64.271696 32.271696C 64.271696 31.167126,64.466958 31.638531,63.685909 30.857482C 62.904861 30.076434,63.376265 30.271696,62.271696 30.271696C 61.167126 30.271696,61.638531 30.076434,60.857482 30.857482C 60.076434 31.638531,60.271696 31.167126,60.271696 32.271696C 60.271696 33.376265,60.076434 32.904861,60.857482 33.685909C 61.638531 34.466958,61.167126 34.271696,62.271696 34.271696C 63.376265 34.271696,62.904861 34.466958,63.685909 33.685909C 64.466958 32.904861,64.271696 33.376265,64.271696 32.271696Z" fill="blue" stroke="black" stroke-width="0.50" stroke-linecap="round" stroke-linejoin="round"/><path d="M 55.484899 11.058492C 55.484899 9.953923,55.680161 10.425327,54.899113 9.644279C 54.118064 8.863230,54.589469 9.058492,53.484899 9.058492C 52.380330 9.058492,52.851734 8.863230,52.070686 9.644279C 51.289637 10.425327,51.484899 9.953923,51.484899 11.058492C 51.484899 12.163062,51.289637 11.691657,52.070686 12.472706C 52.851734 13.253755,52.380330 13.058492,53.484899 13.058492C 54.589469 13.058492,54.118064 13.253755,54.899113 12.472706C 55.680161 11.691657,55.484899 12.163062,55.484899 11.058492Z" fill="blue" stroke="black" stroke-width="0.50" stroke-linecap="round" stroke-linejoin="round"/><path d="M 34.271696 2.271696C 34.271696 1.167126,34.466958 1.638531,33.685909 0.857482C 32.904861 0.076434,33.376265 0.271696,32.271696 0.271696C 31.167126 0.271696,31.638531 0.076434,30.857482 0.857482C 30.076434 1.638531,30.271696 1.167126,30.271696 2.271696C 30.271696 3.376265,30.076434 2.904861,30.857482 3.685909C 31.638531 4.466958,31.167126 4.271696,32.271696 4.271696C 33.376265 4.271696,32.904861 4.466958,33.685909 3.685909C 34.466958 2.904861,34.271696 3.376265,34.271696 2.271696Z" fill="blue" stroke="black" stroke-width="0.50" stroke-linecap="round" stroke-linejoin="round"/><path d="M 13.058492 11.058492C 13.058492 9.953923,13.253755 10.425327,12.472706 9.644279C 11.691657 8.863230,12.163062 9.058492,11.058492 9.058492C 9.953923 9.058492,10.425327 8.863230,9.644279 9.644279C 8.863230 10.425327,9.058492 9.953923,9.058492 11.058492C 9.058492 12.163062,8.863230 11.691657,9.644279 12.472706C 10.425327 13.253755,9.953923 13.058492,11.058492 13.058492C 12.163062 13.058492,11.691657 13.253755,12.472706 12.472706C 13.253755 11.691657,13.058492 12.163062,13.058492 11.058492Z" fill="blue" stroke="black" stroke-width="0.50" stroke-linecap="round" stroke-linejoin="round"/><path d="M 4.271696 32.271696C 4.271696 31.167126,4.466958 31.638531,3.685909 30.857482C 2.904861 30.076434,3.376265 30.271696,2.271696 30.271696C 1.167126 30.271696,1.638531 30.076434,0.857482 30.857482C 0.076434 31.638531,0.271696 31.167126,0.271696 32.271696C 0.271696 33.376265,0.076434 32.904861,0.857482 33.685909C 1.638531 34.466958,1.167126 34.271696,2.271696 34.271696C 3.376265 34.271696,2.904861 34.466958,3.685909 33.685909C 4.466958 32.904861,4.271696 33.376265,4.271696 32.271696Z" fill="blue" stroke="black" stroke-width="0.50" stroke-linecap="round" stroke-linejoin="round"/><path d="M 13.058492 53.484899C 13.058492 52.380330,13.253755 52.851734,12.472706 52.070686C 11.691657 51.289637,12.163062 51.484899,11.058492 51.484899C 9.953923 51.484899,10.425327 51.289637,9.644279 52.070686C 8.863230 52.851734,9.058492 52.380330,9.058492 53.484899C 9.058492 54.589469,8.863230 54.118064,9.644279 54.899113C 10.425327 55.680161,9.953923 55.484899,11.058492 55.484899C 12.163062 55.484899,11.691657 55.680161,12.472706 54.899113C 13.253755 54.118064,13.058492 54.589469,13.058492 53.484899Z" fill="blue" stroke="black" stroke-width="0.50" stroke-linecap="round" stroke-linejoin="round"/><path d="M 34.271696 62.271696C 34.271696 61.167126,34.466958 61.638531,33.685909 60.857482C 32.904861 60.076434,33.376265 60.271696,32.271696 60.271696C 31.167126 60.271696,31.638531 60.076434,30.857482 60.857482C 30.076434 61.638531,30.271696 61.167126,30.271696 62.271696C 30.271696 63.376265,30.076434 62.904861,30.857482 63.685909C 31.638531 64.466958,31.167126 64.271696,32.271696 64.271696C 33.376265 64.271696,32.904861 64.466958,33.685909 63.685909C 34.466958 62.904861,34.271696 63.376265,34.271696 62.271696Z" fill="blue" stroke="black" stroke-width="0.50" stroke-linecap="round" stroke-linejoin="round"/><path d="M 55.484899 53.484899C 55.484899 52.380330,55.680161 52.851734,54.899113 52.070686C 54.118064 51.289637,54.589469 51.484899,53.484899 51.484899C 52.380330 51.484899,52.851734 51.289637,52.070686 52.070686C 51.289637 52.851734,51.484899 52.380330,51.484899 53.484899C 51.484899 54.589469,51.289637 54.118064,52.070686 54.899113C 52.851734 55.680161,52.380330 55.484899,53.484899 55.484899C 54.589469 55.484899,54.118064 55.680161,54.899113 54.899113C 55.680161 54.118064,55.484899 54.589469,55.484899 53.484899Z" fill="blue" stroke="black" stroke-width="0.50" stroke-linecap="round" stroke-linejoin="round"/></svg>
