<svg xmlns="http://www.w3.org/2000/svg" viewBox="0 0 203.53073372946037 136.53073372946037"><path d="M 11.000000 124.000000L 87.304482 124.000000" fill="none" stroke="black" stroke-width="0.50" stroke-linecap="round" stroke-linejoin="round"/><path d="M 87.304482 125.530734L 91.000000 124.000000L 87.304482 122.469266L 87.304482 125.530734Z" fill="black" stroke="none"/><path d="M 14.695518 104.000000L 87.304482 104.000000" fill="none" stroke="blue" stroke-width="0.50" stroke-linecap="round" stroke-linejoin="round"/><path d="M 87.304482 105.530734L 91.000000 104.000000L 87.304482 102.469266L 87.304482 105.530734Z" fill="blue" stroke="none"/><path d="M 14.695518 102.469266L 11.000000 104.000000L 14.695518 105.530734L 14.695518 102.469266Z" fill="blue" stroke="none"/><path d="M 11.000000 74.000000C 16.185185 56.222222,32.481481 44.000000,51.000000 44.000000C 69.518519 44.000000,84.780070 52.674525,89.965255 70.452303" fill="none" stroke="red" stroke-width="0.50" stroke-linecap="round" stroke-linejoin="round"/><path d="M 88.495751 70.880908L 91.000000 74.000000L 91.434759 70.023697L 88.495751 70.880908Z" fill="red" stroke="none"/><path d="M 11.000000 34.000000L 83.272593 34.000000" fill="none" stroke="green" stroke-width="0.50" stroke-linecap="round" stroke-linejoin="round"/><path d="M 83.272593 36.070552L 91.000000 34.000000L 83.272593 31.929448L 83.272593 36.070552Z" fill="green" stroke="none"/><path d="M 11.000000 14.000000L 85.803848 14.000000" fill="none" stroke="purple" stroke-width="0.50" stroke-linecap="round" stroke-linejoin="round"/><path d="M 85.803848 17.000000L 91.000000 14.000000L 85.803848 11.000000L 85.803848 17.000000Z" fill="purple" stroke="none"/><path d="M 111.000000 124.000000C 111.000000 101.908610,128.908610 84.000000,151.000000 84.000000C 173.091390 84.000000,191.000000 98.213092,191.000000 120.304482" fill="none" stroke="orange" stroke-width="2.00" stroke-linecap="round" stroke-linejoin="round"/><path d="M 189.469266 120.304482L 191.000000 124.000000L 192.530734 120.304482L 189.469266 120.304482Z" fill="orange" stroke="none"/><path d="M 114.695518 64.000000L 187.304482 64.000000" fill="none" stroke="navy" stroke-width="0.50" stroke-linecap="round" stroke-linejoin="round" stroke-dasharray="3.00 3.00"/><path d="M 187.304482 65.530734L 191.000000 64.000000L 187.304482 62.469266L 187.304482 65.530734Z" fill="navy" stroke="none"/><path d="M 114.695518 62.469266L 111.000000 64.000000L 114.695518 65.530734L 114.695518 62.469266Z" fill="navy" stroke="none"/></svg>
