<svg xmlns="http://www.w3.org/2000/svg" width="183.53073372946037" height="116.53073372946037" viewBox="0 0 183.53073372946037 116.53073372946037"><path d="M 1.000000 114.000000L 77.304482 114.000000" fill="none" stroke="black" stroke-width="0.50" stroke-linecap="round" stroke-linejoin="round"/><path d="M 77.304482 115.530734L 81.000000 114.000000L 77.304482 112.469266L 77.304482 115.530734Z" fill="black" stroke="none"/><path d="M 4.695518 94.000000L 77.304482 94.000000" fill="none" stroke="blue" stroke-width="0.50" stroke-linecap="round" stroke-linejoin="round"/><path d="M 77.304482 95.530734L 81.000000 94.000000L 77.304482 92.469266L 77.304482 95.530734Z" fill="blue" stroke="none"/><path d="M 4.695518 92.469266L 1.000000 94.000000L 4.695518 95.530734L 4.695518 92.469266Z" fill="blue" stroke="none"/><path d="M 1.000000 64.000000C 6.185185 46.222222,22.481481 34.000000,41.000000 34.000000C 59.518519 34.000000,74.780070 42.674525,79.965255 60.452303" fill="none" stroke="red" stroke-width="0.50" stroke-linecap="round" stroke-linejoin="round"/><path d="M 78.495751 60.880908L 81.000000 64.000000L 81.434759 60.023697L 78.495751 60.880908Z" fill="red" stroke="none"/><path d="M 1.000000 24.000000L 73.272593 24.000000" fill="none" stroke="green" stroke-width="0.50" stroke-linecap="round" stroke-linejoin="round"/><path d="M 73.272593 26.070552L 81.000000 24.000000L 73.272593 21.929448L 73.272593 26.070552Z" fill="green" stroke="none"/><path d="M 1.000000 4.000000L 75.803848 4.000000" fill="none" stroke="purple" stroke-width="0.50" stroke-linecap="round" stroke-linejoin="round"/><path d="M 75.803848 7.000000L 81.000000 4.000000L 75.803848 1.000000L 75.803848 7.000000Z" fill="purple" stroke="none"/><path d="M 101.000000 114.000000C 101.000000 91.908610,118.908610 74.000000,141.000000 74.000000C 163.091390 74.000000,181.000000 88.213092,181.000000 110.304482" fill="none" stroke="orange" stroke-width="2.00" stroke-linecap="round" stroke-linejoin="round"/><path d="M 179.469266 110.304482L 181.000000 114.000000L 182.530734 110.304482L 179.469266 110.304482Z" fill="orange" stroke="none"/><path d="M 104.695518 54.000000L 177.304482 54.000000" fill="none" stroke="navy" stroke-width="0.50" stroke-linecap="round" stroke-linejoin="round" stroke-dasharray="3.00 3.00"/><path d="M 177.304482 55.530734L 181.000000 54.000000L 177.304482 52.469266L 177.304482 55.530734Z" fill="navy" stroke="none"/><path d="M 104.695518 52.469266L 101.000000 54.000000L 104.695518 55.530734L 104.695518 52.469266Z" fill="navy" stroke="none"/></svg>
