<svg xmlns="http://www.w3.org/2000/svg" viewBox="0 0 270.5 100.5"><path d="M 10.250000 50.250000L 60.250000 10.250000" fill="none" stroke="gray" stroke-width="0.50" stroke-linecap="round" stroke-linejoin="round"/><path d="M 60.250000 10.250000L 110.250000 50.250000" fill="none" stroke="gray" stroke-width="0.50" stroke-linecap="round" stroke-linejoin="round"/><path d="M 110.250000 50.250000L 60.250000 90.250000" fill="none" stroke="gray" stroke-width="0.50" stroke-linecap="round" stroke-linejoin="round"/><path d="M 60.250000 90.250000L 10.250000 50.250000" fill="none" stroke="gray" stroke-width="0.50" stroke-linecap="round" stroke-linejoin="round"/><path d="M 10.274414 50.230469L 60.225586 10.269531C 76.924805 23.589844,93.575195 36.910156,110.225586 50.230469C 93.575195 63.589844,76.924805 76.910156,60.274414 90.230469C 43.575195 76.910156,26.924805 63.589844,10.274414 50.269531L 10.274414 50.230469Z" fill="rgb(204,230,255)" stroke="navy" stroke-width="0.50" stroke-linecap="round" stroke-linejoin="round"/><path d="M 160.250000 50.250000C 165.511716 26.864596,186.279961 10.250000,210.250000 10.250000C 234.220039 10.250000,254.988284 26.864596,260.250000 50.250000" fill="none" stroke="gray" stroke-width="0.50" stroke-linecap="round" stroke-linejoin="round"/><path d="M 260.250000 50.250000C 254.988284 73.635404,234.220039 90.250000,210.250000 90.250000C 186.279961 90.250000,165.511716 73.635404,160.250000 50.250000" fill="none" stroke="gray" stroke-width="0.50" stroke-linecap="round" stroke-linejoin="round"/><path d="M 160.257719 50.215749C 165.531998 26.848375,186.291665 10.250000,210.250000 10.250000C 234.208335 10.250000,254.968002 26.848375,260.242281 50.215749C 254.968002 73.651625,234.208335 90.250000,210.250000 90.250000C 160.257719 50.284251,160.257719 50.215749,160.257719 50.215749Z" fill="rgb(255,230,204)" stroke="orange" stroke-width="0.50" stroke-linecap="round" stroke-linejoin="round"/></svg>
