<svg xmlns="http://www.w3.org/2000/svg" width="250.5" height="80.5" viewBox="0 0 250.5 80.5"><path d="M 0.250000 40.250000L 50.250000 0.250000" fill="none" stroke="gray" stroke-width="0.50" stroke-linecap="round" stroke-linejoin="round"/><path d="M 50.250000 0.250000L 100.250000 40.250000" fill="none" stroke="gray" stroke-width="0.50" stroke-linecap="round" stroke-linejoin="round"/><path d="M 100.250000 40.250000L 50.250000 80.250000" fill="none" stroke="gray" stroke-width="0.50" stroke-linecap="round" stroke-linejoin="round"/><path d="M 50.250000 80.250000L 0.250000 40.250000" fill="none" stroke="gray" stroke-width="0.50" stroke-linecap="round" stroke-linejoin="round"/><path d="M 0.274414 40.230469L 50.225586 0.269531C 66.924805 13.589844,83.575195 26.910156,100.225586 40.230469C 83.575195 53.589844,66.924805 66.910156,50.274414 80.230469C 33.575195 66.910156,16.924805 53.589844,0.274414 40.269531L 0.274414 40.230469Z" fill="rgb(204,230,255)" stroke="navy" stroke-width="0.50" stroke-linecap="round" stroke-linejoin="round"/><path d="M 150.250000 40.250000C 155.511716 16.864596,176.279961 0.250000,200.250000 0.250000C 224.220039 0.250000,244.988284 16.864596,250.250000 40.250000" fill="none" stroke="gray" stroke-width="0.50" stroke-linecap="round" stroke-linejoin="round"/><path d="M 250.250000 40.250000C 244.988284 63.635404,224.220039 80.250000,200.250000 80.250000C 176.279961 80.250000,155.511716 63.635404,150.250000 40.250000" fill="none" stroke="gray" stroke-width="0.50" stroke-linecap="round" stroke-linejoin="round"/><path d="M 150.257719 40.215749C 155.531998 16.848375,176.291665 0.250000,200.250000 0.250000C 224.208335 0.250000,244.968002 16.848375,250.242281 40.215749C 244.968002 63.651625,224.208335 80.250000,200.250000 80.250000C 150.257719 40.284251,150.257719 40.215749,150.257719 40.215749Z" fill="rgb(255,230,204)" stroke="orange" stroke-width="0.50" stroke-linecap="round" stroke-linejoin="round"/></svg>
