<svg xmlns="http://www.w3.org/2000/svg" viewBox="0 0 80.5 80.5"><defs><clipPath id="clip0"><path d="M 70.250000 40.250000C 70.250000 32.293505,67.089295 24.662888,61.463203 19.036797C 55.837112 13.410705,48.206495 10.250000,40.250000 10.250000C 32.293505 10.250000,24.662888 13.410705,19.036797 19.036797C 13.410705 24.662888,10.250000 32.293505,10.250000 40.250000C 10.250000 48.206495,13.410705 55.837112,19.036797 61.463203C 24.662888 67.089295,32.293505 70.250000,40.250000 70.250000C 48.206495 70.250000,55.837112 67.089295,61.463203 61.463203C 67.089295 55.837112,70.250000 48.206495,70.250000 40.250000Z"/></clipPath></defs><g clip-path="url(#clip0)"><path d="M -9.750000 90.250000L 90.250000 -9.750000" fill="none" stroke="red" stroke-width="3.00" stroke-linecap="round" stroke-linejoin="round"/><path d="M -9.750000 -9.750000L 90.250000 90.250000" fill="none" stroke="blue" stroke-width="3.00" stroke-linecap="round" stroke-linejoin="round"/><path d="M 0.250000 80.250000L 80.250000 80.250000L 80.250000 0.250000L 0.250000 0.250000L 0.250000 80.250000Z" fill="none" stroke="green" stroke-width="2.00" stroke-linecap="round" stroke-linejoin="round"/></g><path d="M 70.250000 40.250000C 70.250000 32.293505,67.089295 24.662888,61.463203 19.036797C 55.837112 13.410705,48.206495 10.250000,40.250000 10.250000C 32.293505 10.250000,24.662888 13.410705,19.036797 19.036797C 13.410705 24.662888,10.250000 32.293505,10.250000 40.250000C 10.250000 48.206495,13.410705 55.837112,19.036797 61.463203C 24.662888 67.089295,32.293505 70.250000,40.250000 70.250000C 48.206495 70.250000,55.837112 67.089295,61.463203 61.463203C 67.089295 55.837112,70.250000 48.206495,70.250000 40.250000Z" fill="none" stroke="gray" stroke-width="0.50" stroke-linecap="round" stroke-linejoin="round" stroke-dasharray="3.00 3.00"/></svg>
