<svg xmlns="http://www.w3.org/2000/svg" width="61.150873819585456" height="61.150873819585456" viewBox="0 0 61.150873819585456 61.150873819585456"><defs><clipPath id="clip0"><path d="M 60.575437 30.575437C 60.575437 14.006894,63.504369 21.077962,51.788640 9.362233C 40.072912 -2.353495,47.143979 0.575437,30.575437 0.575437C 14.006894 0.575437,21.077962 -2.353495,9.362233 9.362233C -2.353495 21.077962,0.575437 14.006894,0.575437 30.575437C 0.575437 47.143979,-2.353495 40.072912,9.362233 51.788640C 21.077962 63.504369,14.006894 60.575437,30.575437 60.575437C 47.143979 60.575437,40.072912 63.504369,51.788640 51.788640C 63.504369 40.072912,60.575437 47.143979,60.575437 30.575437Z"/></clipPath></defs><g clip-path="url(#clip0)"><path d="M -19.424563 80.575437L 80.575437 -19.424563" fill="none" stroke="red" stroke-width="3.00" stroke-linecap="round" stroke-linejoin="round"/><path d="M -19.424563 -19.424563L 80.575437 80.575437" fill="none" stroke="blue" stroke-width="3.00" stroke-linecap="round" stroke-linejoin="round"/><path d="M -9.424563 70.575437L 70.575437 70.575437L 70.575437 -9.424563L -9.424563 -9.424563L -9.424563 70.575437Z" fill="none" stroke="green" stroke-width="2.00" stroke-linecap="round" stroke-linejoin="round"/></g><path d="M 60.575437 30.575437C 60.575437 14.006894,63.504369 21.077962,51.788640 9.362233C 40.072912 -2.353495,47.143979 0.575437,30.575437 0.575437C 14.006894 0.575437,21.077962 -2.353495,9.362233 9.362233C -2.353495 21.077962,0.575437 14.006894,0.575437 30.575437C 0.575437 47.143979,-2.353495 40.072912,9.362233 51.788640C 21.077962 63.504369,14.006894 60.575437,30.575437 60.575437C 47.143979 60.575437,40.072912 63.504369,51.788640 51.788640C 63.504369 40.072912,60.575437 47.143979,60.575437 30.575437Z" fill="none" stroke="gray" stroke-width="0.50" stroke-linecap="round" stroke-linejoin="round" stroke-dasharray="3.00 3.00"/></svg>
