<svg xmlns="http://www.w3.org/2000/svg" viewBox="0 0 198.69478751093843 123"><path d="M 17.194788 91.500000C -0.818261 54.550157,26.088087 11.500000,67.194788 11.500000C 108.301488 11.500000,135.207836 54.550157,117.194788 91.500000" fill="none" stroke="red" stroke-width="2.00" stroke-linecap="round" stroke-linejoin="round"/><path d="M 87.194788 41.500000C 87.194788 36.195670,85.087651 31.108592,81.336923 27.357864C 77.586196 23.607137,72.499117 21.500000,67.194788 21.500000C 61.890458 21.500000,56.803379 23.607137,53.052652 27.357864C 49.301924 31.108592,47.194788 36.195670,47.194788 41.500000C 47.194788 46.804330,49.301924 51.891408,53.052652 55.642136C 56.803379 59.392863,61.890458 61.500000,67.194788 61.500000C 72.499117 61.500000,77.586196 59.392863,81.336923 55.642136C 85.087651 51.891408,87.194788 46.804330,87.194788 41.500000Z" fill="none" stroke="black" stroke-width="0.50" stroke-linecap="round" stroke-linejoin="round"/><path d="M 137.194788 81.500000L 187.194788 81.500000L 187.194788 31.500000L 137.194788 31.500000L 137.194788 81.500000Z" fill="rgb(51,204,77)" stroke="#000000" stroke-width="1.50" stroke-linecap="round" stroke-linejoin="round"/><path d="M 17.194788 111.500000L 117.194788 111.500000" fill="none" stroke="rgb(128,128,128)" stroke-width="3.00" stroke-linecap="round" stroke-linejoin="round"/></svg>
