<svg xmlns="http://www.w3.org/2000/svg" width="178.69478751093843" height="103" viewBox="0 0 178.69478751093843 103"><path d="M 7.194788 81.500000C -10.818261 44.550157,16.088087 1.500000,57.194788 1.500000C 98.301488 1.500000,125.207836 44.550157,107.194788 81.500000" fill="none" stroke="red" stroke-width="2.00" stroke-linecap="round" stroke-linejoin="round"/><path d="M 77.194788 31.500000C 77.194788 20.454305,79.147409 25.168350,71.336923 17.357864C 63.526437 9.547379,68.240483 11.500000,57.194788 11.500000C 46.149093 11.500000,50.863138 9.547379,43.052652 17.357864C 35.242166 25.168350,37.194788 20.454305,37.194788 31.500000C 37.194788 42.545695,35.242166 37.831650,43.052652 45.642136C 50.863138 53.452621,46.149093 51.500000,57.194788 51.500000C 68.240483 51.500000,63.526437 53.452621,71.336923 45.642136C 79.147409 37.831650,77.194788 42.545695,77.194788 31.500000Z" fill="none" stroke="black" stroke-width="0.50" stroke-linecap="round" stroke-linejoin="round"/><path d="M 127.194788 71.500000L 177.194788 71.500000L 177.194788 21.500000L 127.194788 21.500000L 127.194788 71.500000Z" fill="rgb(51,204,77)" stroke="#000000" stroke-width="1.50" stroke-linecap="round" stroke-linejoin="round"/><path d="M 7.194788 101.500000L 107.194788 101.500000" fill="none" stroke="rgb(128,128,128)" stroke-width="3.00" stroke-linecap="round" stroke-linejoin="round"/></svg>
