<svg xmlns="http://www.w3.org/2000/svg" width="70.71695793986183" height="30.825436909792728" viewBox="0 0 70.71695793986183 30.825436909792728"><path d="M 30.412718 15.412718C 30.412718 7.128447,31.877185 10.663981,26.019320 4.806117C 20.161456 -1.051748,23.696990 0.412718,15.412718 0.412718C 7.128447 0.412718,10.663981 -1.051748,4.806117 4.806117C -1.051748 10.663981,0.412718 7.128447,0.412718 15.412718C 0.412718 23.696990,-1.051748 20.161456,4.806117 26.019320C 10.663981 31.877185,7.128447 30.412718,15.412718 30.412718C 23.696990 30.412718,20.161456 31.877185,26.019320 26.019320C 31.877185 20.161456,30.412718 23.696990,30.412718 15.412718Z" fill="none" stroke="red" stroke-width="0.50" stroke-linecap="round" stroke-linejoin="round"/><path d="M 25.412718 15.412718C 25.412718 9.889871,26.389029 12.246894,22.483786 8.341651C 18.578543 4.436408,20.935566 5.412718,15.412718 5.412718C 9.889871 5.412718,12.246894 4.436408,8.341651 8.341651C 4.436408 12.246894,5.412718 9.889871,5.412718 15.412718C 5.412718 20.935566,4.436408 18.578543,8.341651 22.483786C 12.246894 26.389029,9.889871 25.412718,15.412718 25.412718C 20.935566 25.412718,18.578543 26.389029,22.483786 22.483786C 26.389029 18.578543,25.412718 20.935566,25.412718 15.412718Z" fill="none" stroke="blue" stroke-width="0.50" stroke-linecap="round" stroke-linejoin="round"/><path d="M 45.412718 25.412718L 65.412718 25.412718L 65.412718 5.412718L 45.412718 5.412718L 45.412718 25.412718Z" fill="none" stroke="green" stroke-width="0.50" stroke-linecap="round" stroke-linejoin="round"/><path d="M 70.412718 15.412718C 70.412718 12.651295,70.900874 13.829806,68.948252 11.877185C 66.995631 9.924563,68.174142 10.412718,65.412718 10.412718C 62.651295 10.412718,63.829806 9.924563,61.877185 11.877185C 59.924563 13.829806,60.412718 12.651295,60.412718 15.412718C 60.412718 18.174142,59.924563 16.995631,61.877185 18.948252C 63.829806 20.900874,62.651295 20.412718,65.412718 20.412718C 68.174142 20.412718,66.995631 20.900874,68.948252 18.948252C 70.900874 16.995631,70.412718 18.174142,70.412718 15.412718Z" fill="purple" stroke="black" stroke-width="0.50" stroke-linecap="round" stroke-linejoin="round"/></svg>
