<svg xmlns="http://www.w3.org/2000/svg" width="100.5" height="63.532543690979274" viewBox="0 0 100.5 63.532543690979274"><path d="M 0.250000 60.250000L 100.250000 60.250000L 100.250000 0.250000L 0.250000 0.250000L 0.250000 60.250000Z" fill="none" stroke="black" stroke-width="0.50" stroke-linecap="round" stroke-linejoin="round"/><path d="M 0.250000 60.250000L 100.250000 0.250000" fill="none" stroke="gray" stroke-width="0.50" stroke-linecap="round" stroke-linejoin="round" stroke-dasharray="3.00 3.00"/><path d="M 100.250000 60.250000L 0.250000 0.250000" fill="none" stroke="gray" stroke-width="0.50" stroke-linecap="round" stroke-linejoin="round" stroke-dasharray="3.00 3.00"/><path d="M 53.250000 30.250000C 53.250000 28.593146,53.542893 29.300253,52.371320 28.128680C 51.199747 26.957107,51.906854 27.250000,50.250000 27.250000C 48.593146 27.250000,49.300253 26.957107,48.128680 28.128680C 46.957107 29.300253,47.250000 28.593146,47.250000 30.250000C 47.250000 31.906854,46.957107 31.199747,48.128680 32.371320C 49.300253 33.542893,48.593146 33.250000,50.250000 33.250000C 51.906854 33.250000,51.199747 33.542893,52.371320 32.371320C 53.542893 31.199747,53.250000 31.906854,53.250000 30.250000Z" fill="red" stroke="black" stroke-width="0.50" stroke-linecap="round" stroke-linejoin="round"/><path d="M 36.583333 60.250000C 36.583333 58.593146,36.876227 59.300253,35.704654 58.128680C 34.533081 56.957107,35.240188 57.250000,33.583333 57.250000C 31.926479 57.250000,32.633586 56.957107,31.462013 58.128680C 30.290440 59.300253,30.583333 58.593146,30.583333 60.250000C 30.583333 61.906854,30.290440 61.199747,31.462013 62.371320C 32.633586 63.542893,31.926479 63.250000,33.583333 63.250000C 35.240188 63.250000,34.533081 63.542893,35.704654 62.371320C 36.876227 61.199747,36.583333 61.906854,36.583333 60.250000Z" fill="blue" stroke="black" stroke-width="0.50" stroke-linecap="round" stroke-linejoin="round"/></svg>
