<svg xmlns="http://www.w3.org/2000/svg" viewBox="0 0 120.5 83.5"><path d="M 10.250000 70.250000L 110.250000 70.250000L 110.250000 10.250000L 10.250000 10.250000L 10.250000 70.250000Z" fill="none" stroke="black" stroke-width="0.50" stroke-linecap="round" stroke-linejoin="round"/><path d="M 10.250000 70.250000L 110.250000 10.250000" fill="none" stroke="gray" stroke-width="0.50" stroke-linecap="round" stroke-linejoin="round" stroke-dasharray="3.00 3.00"/><path d="M 110.250000 70.250000L 10.250000 10.250000" fill="none" stroke="gray" stroke-width="0.50" stroke-linecap="round" stroke-linejoin="round" stroke-dasharray="3.00 3.00"/><path d="M 63.250000 40.250000C 63.250000 39.454351,62.933929 38.691289,62.371320 38.128680C 61.808711 37.566071,61.045649 37.250000,60.250000 37.250000C 59.454351 37.250000,58.691289 37.566071,58.128680 38.128680C 57.566071 38.691289,57.250000 39.454351,57.250000 40.250000C 57.250000 41.045649,57.566071 41.808711,58.128680 42.371320C 58.691289 42.933929,59.454351 43.250000,60.250000 43.250000C 61.045649 43.250000,61.808711 42.933929,62.371320 42.371320C 62.933929 41.808711,63.250000 41.045649,63.250000 40.250000Z" fill="red" stroke="black" stroke-width="0.50" stroke-linecap="round" stroke-linejoin="round"/><path d="M 46.583333 70.250000C 46.583333 69.454351,46.267263 68.691289,45.704654 68.128680C 45.142045 67.566071,44.378983 67.250000,43.583333 67.250000C 42.787684 67.250000,42.024622 67.566071,41.462013 68.128680C 40.899404 68.691289,40.583333 69.454351,40.583333 70.250000C 40.583333 71.045649,40.899404 71.808711,41.462013 72.371320C 42.024622 72.933929,42.787684 73.250000,43.583333 73.250000C 44.378983 73.250000,45.142045 72.933929,45.704654 72.371320C 46.267263 71.808711,46.583333 71.045649,46.583333 70.250000Z" fill="blue" stroke="black" stroke-width="0.50" stroke-linecap="round" stroke-linejoin="round"/></svg>
