<svg xmlns="http://www.w3.org/2000/svg" width="106.04339158797237" height="56.043391587972366" viewBox="0 0 106.04339158797237 56.043391587972366"><path d="M 3.021696 53.021696C 33.021696 3.021696,73.021696 3.021696,103.021696 53.021696" fill="none" stroke="blue" stroke-width="2.00" stroke-linecap="round" stroke-linejoin="round"/><path d="M 3.021696 53.021696L 33.021696 3.021696" fill="none" stroke="gray" stroke-width="0.50" stroke-linecap="round" stroke-linejoin="round" stroke-dasharray="3.00 3.00"/><path d="M 103.021696 53.021696L 73.021696 3.021696" fill="none" stroke="gray" stroke-width="0.50" stroke-linecap="round" stroke-linejoin="round" stroke-dasharray="3.00 3.00"/><path d="M 35.021696 3.021696C 35.021696 1.917126,35.216958 2.388531,34.435909 1.607482C 33.654861 0.826434,34.126265 1.021696,33.021696 1.021696C 31.917126 1.021696,32.388531 0.826434,31.607482 1.607482C 30.826434 2.388531,31.021696 1.917126,31.021696 3.021696C 31.021696 4.126265,30.826434 3.654861,31.607482 4.435909C 32.388531 5.216958,31.917126 5.021696,33.021696 5.021696C 34.126265 5.021696,33.654861 5.216958,34.435909 4.435909C 35.216958 3.654861,35.021696 4.126265,35.021696 3.021696Z" fill="red" stroke="black" stroke-width="0.50" stroke-linecap="round" stroke-linejoin="round"/><path d="M 75.021696 3.021696C 75.021696 1.917126,75.216958 2.388531,74.435909 1.607482C 73.654861 0.826434,74.126265 1.021696,73.021696 1.021696C 71.917126 1.021696,72.388531 0.826434,71.607482 1.607482C 70.826434 2.388531,71.021696 1.917126,71.021696 3.021696C 71.021696 4.126265,70.826434 3.654861,71.607482 4.435909C 72.388531 5.216958,71.917126 5.021696,73.021696 5.021696C 74.126265 5.021696,73.654861 5.216958,74.435909 4.435909C 75.216958 3.654861,75.021696 4.126265,75.021696 3.021696Z" fill="red" stroke="black" stroke-width="0.50" stroke-linecap="round" stroke-linejoin="round"/><path d="M 5.021696 53.021696C 5.021696 51.917126,5.216958 52.388531,4.435909 51.607482C 3.654861 50.826434,4.126265 51.021696,3.021696 51.021696C 1.917126 51.021696,2.388531 50.826434,1.607482 51.607482C 0.826434 52.388531,1.021696 51.917126,1.021696 53.021696C 1.021696 54.126265,0.826434 53.654861,1.607482 54.435909C 2.388531 55.216958,1.917126 55.021696,3.021696 55.021696C 4.126265 55.021696,3.654861 55.216958,4.435909 54.435909C 5.216958 53.654861,5.021696 54.126265,5.021696 53.021696Z" fill="black" stroke="black" stroke-width="0.50" stroke-linecap="round" stroke-linejoin="round"/><path d="M 105.021696 53.021696C 105.021696 51.917126,105.216958 52.388531,104.435909 51.607482C 103.654861 50.826434,104.126265 51.021696,103.021696 51.021696C 101.917126 51.021696,102.388531 50.826434,101.607482 51.607482C 100.826434 52.388531,101.021696 51.917126,101.021696 53.021696C 101.021696 54.126265,100.826434 53.654861,101.607482 54.435909C 102.388531 55.216958,101.917126 55.021696,103.021696 55.021696C 104.126265 55.021696,103.654861 55.216958,104.435909 54.435909C 105.216958 53.654861,105.021696 54.126265,105.021696 53.021696Z" fill="black" stroke="black" stroke-width="0.50" stroke-linecap="round" stroke-linejoin="round"/></svg>
