<svg xmlns="http://www.w3.org/2000/svg" width="102.19640004235035" height="62.52169579398619" viewBox="0 0 102.19640004235035 62.52169579398619"><path d="M 1.098200 62.271696C -4.626383 31.046699,19.352787 2.271696,51.098200 2.271696C 82.843613 2.271696,106.822783 31.046699,101.098200 62.271696" fill="none" stroke="blue" stroke-width="0.50" stroke-linecap="round" stroke-linejoin="round"/><path d="M 19.352787 2.271696L 51.098200 2.271696" fill="none" stroke="red" stroke-width="0.50" stroke-linecap="round" stroke-linejoin="round" stroke-dasharray="3.00 3.00"/><path d="M 51.098200 2.271696L 82.843613 2.271696" fill="none" stroke="green" stroke-width="0.50" stroke-linecap="round" stroke-linejoin="round" stroke-dasharray="3.00 3.00"/><path d="M 53.098200 2.271696C 53.098200 1.167126,53.293462 1.638531,52.512414 0.857482C 51.731365 0.076434,52.202770 0.271696,51.098200 0.271696C 49.993631 0.271696,50.465035 0.076434,49.683986 0.857482C 48.902938 1.638531,49.098200 1.167126,49.098200 2.271696C 49.098200 3.376265,48.902938 2.904861,49.683986 3.685909C 50.465035 4.466958,49.993631 4.271696,51.098200 4.271696C 52.202770 4.271696,51.731365 4.466958,52.512414 3.685909C 53.293462 2.904861,53.098200 3.376265,53.098200 2.271696Z" fill="blue" stroke="black" stroke-width="0.50" stroke-linecap="round" stroke-linejoin="round"/><path d="M 21.352787 2.271696C 21.352787 1.167126,21.548049 1.638531,20.767001 0.857482C 19.985952 0.076434,20.457357 0.271696,19.352787 0.271696C 18.248218 0.271696,18.719622 0.076434,17.938573 0.857482C 17.157525 1.638531,17.352787 1.167126,17.352787 2.271696C 17.352787 3.376265,17.157525 2.904861,17.938573 3.685909C 18.719622 4.466958,18.248218 4.271696,19.352787 4.271696C 20.457357 4.271696,19.985952 4.466958,20.767001 3.685909C 21.548049 2.904861,21.352787 3.376265,21.352787 2.271696Z" fill="red" stroke="black" stroke-width="0.50" stroke-linecap="round" stroke-linejoin="round"/><path d="M 84.843613 2.271696C 84.843613 1.167126,85.038875 1.638531,84.257827 0.857482C 83.476778 0.076434,83.948183 0.271696,82.843613 0.271696C 81.739044 0.271696,82.210448 0.076434,81.429399 0.857482C 80.648351 1.638531,80.843613 1.167126,80.843613 2.271696C 80.843613 3.376265,80.648351 2.904861,81.429399 3.685909C 82.210448 4.466958,81.739044 4.271696,82.843613 4.271696C 83.948183 4.271696,83.476778 4.466958,84.257827 3.685909C 85.038875 2.904861,84.843613 3.376265,84.843613 2.271696Z" fill="green" stroke="black" stroke-width="0.50" stroke-linecap="round" stroke-linejoin="round"/></svg>
