<svg xmlns="http://www.w3.org/2000/svg" viewBox="0 0 100.5 100.5"><path d="M 90.250000 50.250000C 90.250000 39.641340,86.035726 29.467184,78.534271 21.965729C 71.032816 14.464274,60.858660 10.250000,50.250000 10.250000C 39.641340 10.250000,29.467184 14.464274,21.965729 21.965729C 14.464274 29.467184,10.250000 39.641340,10.250000 50.250000C 10.250000 60.858660,14.464274 71.032816,21.965729 78.534271C 29.467184 86.035726,39.641340 90.250000,50.250000 90.250000C 60.858660 90.250000,71.032816 86.035726,78.534271 78.534271C 86.035726 71.032816,90.250000 60.858660,90.250000 50.250000Z" fill="none" stroke="black" stroke-width="0.50" stroke-linecap="round" stroke-linejoin="round"/><path d="M 90.250000 50.250000L 90.250000 39.641340" fill="none" stroke="cornflowerblue" stroke-width="0.30" stroke-linecap="round" stroke-linejoin="round"/><path d="M 90.250000 50.250000L 90.250000 60.858660" fill="none" stroke="tomato" stroke-width="0.30" stroke-linecap="round" stroke-linejoin="round"/><path d="M 91.500000 39.641340C 91.500000 39.309820,91.368304 38.991877,91.133883 38.757457C 90.899463 38.523036,90.581521 38.391340,90.250000 38.391340C 89.918479 38.391340,89.600537 38.523036,89.366117 38.757457C 89.131696 38.991877,89.000000 39.309820,89.000000 39.641340C 89.000000 39.972861,89.131696 40.290803,89.366117 40.525224C 89.600537 40.759644,89.918479 40.891340,90.250000 40.891340C 90.581521 40.891340,90.899463 40.759644,91.133883 40.525224C 91.368304 40.290803,91.500000 39.972861,91.500000 39.641340Z" fill="cornflowerblue" stroke="black" stroke-width="0.50" stroke-linecap="round" stroke-linejoin="round"/><path d="M 91.500000 60.858660C 91.500000 60.527139,91.368304 60.209197,91.133883 59.974776C 90.899463 59.740356,90.581521 59.608660,90.250000 59.608660C 89.918479 59.608660,89.600537 59.740356,89.366117 59.974776C 89.131696 60.209197,89.000000 60.527139,89.000000 60.858660C 89.000000 61.190180,89.131696 61.508123,89.366117 61.742543C 89.600537 61.976964,89.918479 62.108660,90.250000 62.108660C 90.581521 62.108660,90.899463 61.976964,91.133883 61.742543C 91.368304 61.508123,91.500000 61.190180,91.500000 60.858660Z" fill="tomato" stroke="black" stroke-width="0.50" stroke-linecap="round" stroke-linejoin="round"/><path d="M 92.250000 50.250000C 92.250000 49.719567,92.039286 49.210859,91.664214 48.835786C 91.289141 48.460714,90.780433 48.250000,90.250000 48.250000C 89.719567 48.250000,89.210859 48.460714,88.835786 48.835786C 88.460714 49.210859,88.250000 49.719567,88.250000 50.250000C 88.250000 50.780433,88.460714 51.289141,88.835786 51.664214C 89.210859 52.039286,89.719567 52.250000,90.250000 52.250000C 90.780433 52.250000,91.289141 52.039286,91.664214 51.664214C 92.039286 51.289141,92.250000 50.780433,92.250000 50.250000Z" fill="black" stroke="black" stroke-width="0.50" stroke-linecap="round" stroke-linejoin="round"/><path d="M 78.534271 21.965729L 71.032816 14.464274" fill="none" stroke="cornflowerblue" stroke-width="0.30" stroke-linecap="round" stroke-linejoin="round"/><path d="M 78.534271 21.965729L 86.035726 29.467184" fill="none" stroke="tomato" stroke-width="0.30" stroke-linecap="round" stroke-linejoin="round"/><path d="M 72.282816 14.464274C 72.282816 14.132753,72.151120 13.814811,71.916700 13.580390C 71.682279 13.345970,71.364337 13.214274,71.032816 13.214274C 70.701295 13.214274,70.383353 13.345970,70.148933 13.580390C 69.914512 13.814811,69.782816 14.132753,69.782816 14.464274C 69.782816 14.795794,69.914512 15.113737,70.148933 15.348157C 70.383353 15.582578,70.701295 15.714274,71.032816 15.714274C 71.364337 15.714274,71.682279 15.582578,71.916700 15.348157C 72.151120 15.113737,72.282816 14.795794,72.282816 14.464274Z" fill="cornflowerblue" stroke="black" stroke-width="0.50" stroke-linecap="round" stroke-linejoin="round"/><path d="M 87.285726 29.467184C 87.285726 29.135663,87.154030 28.817721,86.919610 28.583300C 86.685189 28.348880,86.367247 28.217184,86.035726 28.217184C 85.704206 28.217184,85.386263 28.348880,85.151843 28.583300C 84.917422 28.817721,84.785726 29.135663,84.785726 29.467184C 84.785726 29.798705,84.917422 30.116647,85.151843 30.351067C 85.386263 30.585488,85.704206 30.717184,86.035726 30.717184C 86.367247 30.717184,86.685189 30.585488,86.919610 30.351067C 87.154030 30.116647,87.285726 29.798705,87.285726 29.467184Z" fill="tomato" stroke="black" stroke-width="0.50" stroke-linecap="round" stroke-linejoin="round"/><path d="M 80.534271 21.965729C 80.534271 21.435296,80.323558 20.926588,79.948485 20.551515C 79.573412 20.176442,79.064704 19.965729,78.534271 19.965729C 78.003838 19.965729,77.495130 20.176442,77.120058 20.551515C 76.744985 20.926588,76.534271 21.435296,76.534271 21.965729C 76.534271 22.496162,76.744985 23.004870,77.120058 23.379942C 77.495130 23.755015,78.003838 23.965729,78.534271 23.965729C 79.064704 23.965729,79.573412 23.755015,79.948485 23.379942C 80.323558 23.004870,80.534271 22.496162,80.534271 21.965729Z" fill="black" stroke="black" stroke-width="0.50" stroke-linecap="round" stroke-linejoin="round"/><path d="M 50.250000 10.250000L 39.641340 10.250000" fill="none" stroke="cornflowerblue" stroke-width="0.30" stroke-linecap="round" stroke-linejoin="round"/><path d="M 50.250000 10.250000L 60.858660 10.250000" fill="none" stroke="tomato" stroke-width="0.30" stroke-linecap="round" stroke-linejoin="round"/><path d="M 40.891340 10.250000C 40.891340 9.918479,40.759644 9.600537,40.525224 9.366117C 40.290803 9.131696,39.972861 9.000000,39.641340 9.000000C 39.309820 9.000000,38.991877 9.131696,38.757457 9.366117C 38.523036 9.600537,38.391340 9.918479,38.391340 10.250000C 38.391340 10.581521,38.523036 10.899463,38.757457 11.133883C 38.991877 11.368304,39.309820 11.500000,39.641340 11.500000C 39.972861 11.500000,40.290803 11.368304,40.525224 11.133883C 40.759644 10.899463,40.891340 10.581521,40.891340 10.250000Z" fill="cornflowerblue" stroke="black" stroke-width="0.50" stroke-linecap="round" stroke-linejoin="round"/><path d="M 62.108660 10.250000C 62.108660 9.918479,61.976964 9.600537,61.742543 9.366117C 61.508123 9.131696,61.190180 9.000000,60.858660 9.000000C 60.527139 9.000000,60.209197 9.131696,59.974776 9.366117C 59.740356 9.600537,59.608660 9.918479,59.608660 10.250000C 59.608660 10.581521,59.740356 10.899463,59.974776 11.133883C 60.209197 11.368304,60.527139 11.500000,60.858660 11.500000C 61.190180 11.500000,61.508123 11.368304,61.742543 11.133883C 61.976964 10.899463,62.108660 10.581521,62.108660 10.250000Z" fill="tomato" stroke="black" stroke-width="0.50" stroke-linecap="round" stroke-linejoin="round"/><path d="M 52.250000 10.250000C 52.250000 9.719567,52.039286 9.210859,51.664214 8.835786C 51.289141 8.460714,50.780433 8.250000,50.250000 8.250000C 49.719567 8.250000,49.210859 8.460714,48.835786 8.835786C 48.460714 9.210859,48.250000 9.719567,48.250000 10.250000C 48.250000 10.780433,48.460714 11.289141,48.835786 11.664214C 49.210859 12.039286,49.719567 12.250000,50.250000 12.250000C 50.780433 12.250000,51.289141 12.039286,51.664214 11.664214C 52.039286 11.289141,52.250000 10.780433,52.250000 10.250000Z" fill="black" stroke="black" stroke-width="0.50" stroke-linecap="round" stroke-linejoin="round"/><path d="M 21.965729 21.965729L 14.464274 29.467184" fill="none" stroke="cornflowerblue" stroke-width="0.30" stroke-linecap="round" stroke-linejoin="round"/><path d="M 21.965729 21.965729L 29.467184 14.464274" fill="none" stroke="tomato" stroke-width="0.30" stroke-linecap="round" stroke-linejoin="round"/><path d="M 15.714274 29.467184C 15.714274 29.135663,15.582578 28.817721,15.348157 28.583300C 15.113737 28.348880,14.795794 28.217184,14.464274 28.217184C 14.132753 28.217184,13.814811 28.348880,13.580390 28.583300C 13.345970 28.817721,13.214274 29.135663,13.214274 29.467184C 13.214274 29.798705,13.345970 30.116647,13.580390 30.351067C 13.814811 30.585488,14.132753 30.717184,14.464274 30.717184C 14.795794 30.717184,15.113737 30.585488,15.348157 30.351067C 15.582578 30.116647,15.714274 29.798705,15.714274 29.467184Z" fill="cornflowerblue" stroke="black" stroke-width="0.50" stroke-linecap="round" stroke-linejoin="round"/><path d="M 30.717184 14.464274C 30.717184 14.132753,30.585488 13.814811,30.351067 13.580390C 30.116647 13.345970,29.798705 13.214274,29.467184 13.214274C 29.135663 13.214274,28.817721 13.345970,28.583300 13.580390C 28.348880 13.814811,28.217184 14.132753,28.217184 14.464274C 28.217184 14.795794,28.348880 15.113737,28.583300 15.348157C 28.817721 15.582578,29.135663 15.714274,29.467184 15.714274C 29.798705 15.714274,30.116647 15.582578,30.351067 15.348157C 30.585488 15.113737,30.717184 14.795794,30.717184 14.464274Z" fill="tomato" stroke="black" stroke-width="0.50" stroke-linecap="round" stroke-linejoin="round"/><path d="M 23.965729 21.965729C 23.965729 21.435296,23.755015 20.926588,23.379942 20.551515C 23.004870 20.176442,22.496162 19.965729,21.965729 19.965729C 21.435296 19.965729,20.926588 20.176442,20.551515 20.551515C 20.176442 20.926588,19.965729 21.435296,19.965729 21.965729C 19.965729 22.496162,20.176442 23.004870,20.551515 23.379942C 20.926588 23.755015,21.435296 23.965729,21.965729 23.965729C 22.496162 23.965729,23.004870 23.755015,23.379942 23.379942C 23.755015 23.004870,23.965729 22.496162,23.965729 21.965729Z" fill="black" stroke="black" stroke-width="0.50" stroke-linecap="round" stroke-linejoin="round"/><path d="M 10.250000 50.250000L 10.250000 60.858660" fill="none" stroke="cornflowerblue" stroke-width="0.30" stroke-linecap="round" stroke-linejoin="round"/><path d="M 10.250000 50.250000L 10.250000 39.641340" fill="none" stroke="tomato" stroke-width="0.30" stroke-linecap="round" stroke-linejoin="round"/><path d="M 11.500000 60.858660C 11.500000 60.527139,11.368304 60.209197,11.133883 59.974776C 10.899463 59.740356,10.581521 59.608660,10.250000 59.608660C 9.918479 59.608660,9.600537 59.740356,9.366117 59.974776C 9.131696 60.209197,9.000000 60.527139,9.000000 60.858660C 9.000000 61.190180,9.131696 61.508123,9.366117 61.742543C 9.600537 61.976964,9.918479 62.108660,10.250000 62.108660C 10.581521 62.108660,10.899463 61.976964,11.133883 61.742543C 11.368304 61.508123,11.500000 61.190180,11.500000 60.858660Z" fill="cornflowerblue" stroke="black" stroke-width="0.50" stroke-linecap="round" stroke-linejoin="round"/><path d="M 11.500000 39.641340C 11.500000 39.309820,11.368304 38.991877,11.133883 38.757457C 10.899463 38.523036,10.581521 38.391340,10.250000 38.391340C 9.918479 38.391340,9.600537 38.523036,9.366117 38.757457C 9.131696 38.991877,9.000000 39.309820,9.000000 39.641340C 9.000000 39.972861,9.131696 40.290803,9.366117 40.525224C 9.600537 40.759644,9.918479 40.891340,10.250000 40.891340C 10.581521 40.891340,10.899463 40.759644,11.133883 40.525224C 11.368304 40.290803,11.500000 39.972861,11.500000 39.641340Z" fill="tomato" stroke="black" stroke-width="0.50" stroke-linecap="round" stroke-linejoin="round"/><path d="M 12.250000 50.250000C 12.250000 49.719567,12.039286 49.210859,11.664214 48.835786C 11.289141 48.460714,10.780433 48.250000,10.250000 48.250000C 9.719567 48.250000,9.210859 48.460714,8.835786 48.835786C 8.460714 49.210859,8.250000 49.719567,8.250000 50.250000C 8.250000 50.780433,8.460714 51.289141,8.835786 51.664214C 9.210859 52.039286,9.719567 52.250000,10.250000 52.250000C 10.780433 52.250000,11.289141 52.039286,11.664214 51.664214C 12.039286 51.289141,12.250000 50.780433,12.250000 50.250000Z" fill="black" stroke="black" stroke-width="0.50" stroke-linecap="round" stroke-linejoin="round"/><path d="M 21.965729 78.534271L 29.467184 86.035726" fill="none" stroke="cornflowerblue" stroke-width="0.30" stroke-linecap="round" stroke-linejoin="round"/><path d="M 21.965729 78.534271L 14.464274 71.032816" fill="none" stroke="tomato" stroke-width="0.30" stroke-linecap="round" stroke-linejoin="round"/><path d="M 30.717184 86.035726C 30.717184 85.704206,30.585488 85.386263,30.351067 85.151843C 30.116647 84.917422,29.798705 84.785726,29.467184 84.785726C 29.135663 84.785726,28.817721 84.917422,28.583300 85.151843C 28.348880 85.386263,28.217184 85.704206,28.217184 86.035726C 28.217184 86.367247,28.348880 86.685189,28.583300 86.919610C 28.817721 87.154030,29.135663 87.285726,29.467184 87.285726C 29.798705 87.285726,30.116647 87.154030,30.351067 86.919610C 30.585488 86.685189,30.717184 86.367247,30.717184 86.035726Z" fill="cornflowerblue" stroke="black" stroke-width="0.50" stroke-linecap="round" stroke-linejoin="round"/><path d="M 15.714274 71.032816C 15.714274 70.701295,15.582578 70.383353,15.348157 70.148933C 15.113737 69.914512,14.795794 69.782816,14.464274 69.782816C 14.132753 69.782816,13.814811 69.914512,13.580390 70.148933C 13.345970 70.383353,13.214274 70.701295,13.214274 71.032816C 13.214274 71.364337,13.345970 71.682279,13.580390 71.916700C 13.814811 72.151120,14.132753 72.282816,14.464274 72.282816C 14.795794 72.282816,15.113737 72.151120,15.348157 71.916700C 15.582578 71.682279,15.714274 71.364337,15.714274 71.032816Z" fill="tomato" stroke="black" stroke-width="0.50" stroke-linecap="round" stroke-linejoin="round"/><path d="M 23.965729 78.534271C 23.965729 78.003838,23.755015 77.495130,23.379942 77.120058C 23.004870 76.744985,22.496162 76.534271,21.965729 76.534271C 21.435296 76.534271,20.926588 76.744985,20.551515 77.120058C 20.176442 77.495130,19.965729 78.003838,19.965729 78.534271C 19.965729 79.064704,20.176442 79.573412,20.551515 79.948485C 20.926588 80.323558,21.435296 80.534271,21.965729 80.534271C 22.496162 80.534271,23.004870 80.323558,23.379942 79.948485C 23.755015 79.573412,23.965729 79.064704,23.965729 78.534271Z" fill="black" stroke="black" stroke-width="0.50" stroke-linecap="round" stroke-linejoin="round"/><path d="M 50.250000 90.250000L 60.858660 90.250000" fill="none" stroke="cornflowerblue" stroke-width="0.30" stroke-linecap="round" stroke-linejoin="round"/><path d="M 50.250000 90.250000L 39.641340 90.250000" fill="none" stroke="tomato" stroke-width="0.30" stroke-linecap="round" stroke-linejoin="round"/><path d="M 62.108660 90.250000C 62.108660 89.918479,61.976964 89.600537,61.742543 89.366117C 61.508123 89.131696,61.190180 89.000000,60.858660 89.000000C 60.527139 89.000000,60.209197 89.131696,59.974776 89.366117C 59.740356 89.600537,59.608660 89.918479,59.608660 90.250000C 59.608660 90.581521,59.740356 90.899463,59.974776 91.133883C 60.209197 91.368304,60.527139 91.500000,60.858660 91.500000C 61.190180 91.500000,61.508123 91.368304,61.742543 91.133883C 61.976964 90.899463,62.108660 90.581521,62.108660 90.250000Z" fill="cornflowerblue" stroke="black" stroke-width="0.50" stroke-linecap="round" stroke-linejoin="round"/><path d="M 40.891340 90.250000C 40.891340 89.918479,40.759644 89.600537,40.525224 89.366117C 40.290803 89.131696,39.972861 89.000000,39.641340 89.000000C 39.309820 89.000000,38.991877 89.131696,38.757457 89.366117C 38.523036 89.600537,38.391340 89.918479,38.391340 90.250000C 38.391340 90.581521,38.523036 90.899463,38.757457 91.133883C 38.991877 91.368304,39.309820 91.500000,39.641340 91.500000C 39.972861 91.500000,40.290803 91.368304,40.525224 91.133883C 40.759644 90.899463,40.891340 90.581521,40.891340 90.250000Z" fill="tomato" stroke="black" stroke-width="0.50" stroke-linecap="round" stroke-linejoin="round"/><path d="M 52.250000 90.250000C 52.250000 89.719567,52.039286 89.210859,51.664214 88.835786C 51.289141 88.460714,50.780433 88.250000,50.250000 88.250000C 49.719567 88.250000,49.210859 88.460714,48.835786 88.835786C 48.460714 89.210859,48.250000 89.719567,48.250000 90.250000C 48.250000 90.780433,48.460714 91.289141,48.835786 91.664214C 49.210859 92.039286,49.719567 92.250000,50.250000 92.250000C 50.780433 92.250000,51.289141 92.039286,51.664214 91.664214C 52.039286 91.289141,52.250000 90.780433,52.250000 90.250000Z" fill="black" stroke="black" stroke-width="0.50" stroke-linecap="round" stroke-linejoin="round"/><path d="M 78.534271 78.534271L 86.035726 71.032816" fill="none" stroke="cornflowerblue" stroke-width="0.30" stroke-linecap="round" stroke-linejoin="round"/><path d="M 78.534271 78.534271L 71.032816 86.035726" fill="none" stroke="tomato" stroke-width="0.30" stroke-linecap="round" stroke-linejoin="round"/><path d="M 87.285726 71.032816C 87.285726 70.701295,87.154030 70.383353,86.919610 70.148933C 86.685189 69.914512,86.367247 69.782816,86.035726 69.782816C 85.704206 69.782816,85.386263 69.914512,85.151843 70.148933C 84.917422 70.383353,84.785726 70.701295,84.785726 71.032816C 84.785726 71.364337,84.917422 71.682279,85.151843 71.916700C 85.386263 72.151120,85.704206 72.282816,86.035726 72.282816C 86.367247 72.282816,86.685189 72.151120,86.919610 71.916700C 87.154030 71.682279,87.285726 71.364337,87.285726 71.032816Z" fill="cornflowerblue" stroke="black" stroke-width="0.50" stroke-linecap="round" stroke-linejoin="round"/><path d="M 72.282816 86.035726C 72.282816 85.704206,72.151120 85.386263,71.916700 85.151843C 71.682279 84.917422,71.364337 84.785726,71.032816 84.785726C 70.701295 84.785726,70.383353 84.917422,70.148933 85.151843C 69.914512 85.386263,69.782816 85.704206,69.782816 86.035726C 69.782816 86.367247,69.914512 86.685189,70.148933 86.919610C 70.383353 87.154030,70.701295 87.285726,71.032816 87.285726C 71.364337 87.285726,71.682279 87.154030,71.916700 86.919610C 72.151120 86.685189,72.282816 86.367247,72.282816 86.035726Z" fill="tomato" stroke="black" stroke-width="0.50" stroke-linecap="round" stroke-linejoin="round"/><path d="M 80.534271 78.534271C 80.534271 78.003838,80.323558 77.495130,79.948485 77.120058C 79.573412 76.744985,79.064704 76.534271,78.534271 76.534271C 78.003838 76.534271,77.495130 76.744985,77.120058 77.120058C 76.744985 77.495130,76.534271 78.003838,76.534271 78.534271C 76.534271 79.064704,76.744985 79.573412,77.120058 79.948485C 77.495130 80.323558,78.003838 80.534271,78.534271 80.534271C 79.064704 80.534271,79.573412 80.323558,79.948485 79.948485C 80.323558 79.573412,80.534271 79.064704,80.534271 78.534271Z" fill="black" stroke="black" stroke-width="0.50" stroke-linecap="round" stroke-linejoin="round"/></svg>
