<svg xmlns="http://www.w3.org/2000/svg" viewBox="0 0 162.94921875 135.5"><defs><clipPath id="clip0"><path d="M 24.750000 125.250000L 136.001441 125.250000L 136.001441 97.389380L 116.167697 80.822442L 140.232312 22.932885L 140.232312 5.250000L 24.750000 5.250000L 24.750000 125.250000Z"/></clipPath></defs><g clip-path="url(#clip0)"><path d="M 152.699219 65.250000C 152.699219 50.663093,146.904593 36.673628,136.590092 26.359127C 126.275591 16.044626,112.286126 10.250000,97.699219 10.250000C 83.112312 10.250000,69.122847 16.044626,58.808346 26.359127C 48.493845 36.673628,42.699219 50.663093,42.699219 65.250000C 42.699219 79.836907,48.493845 93.826372,58.808346 104.140873C 69.122847 114.455374,83.112312 120.250000,97.699219 120.250000C 112.286126 120.250000,126.275591 114.455374,136.590092 104.140873C 146.904593 93.826372,152.699219 79.836907,152.699219 65.250000Z" fill="none" stroke="black" stroke-width="10.00" stroke-linecap="round" stroke-linejoin="round"/><path d="M 24.750000 60.250000L 124.750000 60.250000L 128.906987 50.250000L 28.906987 50.250000L 24.750000 60.250000Z" fill="black" stroke="none"/><path d="M 24.750000 80.250000L 124.750000 80.250000L 128.906987 70.250000L 28.906987 70.250000L 24.750000 80.250000Z" fill="black" stroke="none"/></g><path d="M 147.699219 65.250000C 147.699219 51.989176,142.431377 39.271480,133.054558 29.894661C 123.677739 20.517842,110.960043 15.250000,97.699219 15.250000C 84.438394 15.250000,71.720699 20.517842,62.343880 29.894661C 52.967061 39.271480,47.699219 51.989176,47.699219 65.250000C 47.699219 78.510824,52.967061 91.228520,62.343880 100.605339C 71.720699 109.982158,84.438394 115.250000,97.699219 115.250000C 110.960043 115.250000,123.677739 109.982158,133.054558 100.605339C 142.431377 91.228520,147.699219 78.510824,147.699219 65.250000Z" fill="none" stroke="silver" stroke-width="0.50" stroke-linecap="round" stroke-linejoin="round" stroke-dasharray="3.00 3.00"/><path d="M 157.699219 65.250000C 157.699219 49.337011,151.377808 34.075776,140.125626 22.823593C 128.873443 11.571410,113.612208 5.250000,97.699219 5.250000C 81.786229 5.250000,66.524995 11.571410,55.272812 22.823593C 44.020629 34.075776,37.699219 49.337011,37.699219 65.250000C 37.699219 81.162989,44.020629 96.424224,55.272812 107.676407C 66.524995 118.928590,81.786229 125.250000,97.699219 125.250000C 113.612208 125.250000,128.873443 118.928590,140.125626 107.676407C 151.377808 96.424224,157.699219 81.162989,157.699219 65.250000Z" fill="none" stroke="silver" stroke-width="0.50" stroke-linecap="round" stroke-linejoin="round" stroke-dasharray="3.00 3.00"/><path d="M 97.699219 125.250000L 136.001441 33.110620" fill="none" stroke="silver" stroke-width="0.50" stroke-linecap="round" stroke-linejoin="round" stroke-dasharray="3.00 3.00"/><path d="M 97.699219 65.250000L 136.001441 33.110620" fill="none" stroke="silver" stroke-width="0.50" stroke-linecap="round" stroke-linejoin="round" stroke-dasharray="3.00 3.00"/><path d="M 97.699219 65.250000L 136.001441 97.389380" fill="none" stroke="silver" stroke-width="0.50" stroke-linecap="round" stroke-linejoin="round" stroke-dasharray="3.00 3.00"/><path d="M 24.750000 60.250000L 124.750000 60.250000L 128.906987 50.250000L 28.906987 50.250000L 24.750000 60.250000Z" fill="none" stroke="silver" stroke-width="0.50" stroke-linecap="round" stroke-linejoin="round"/><path d="M 24.750000 80.250000L 124.750000 80.250000L 128.906987 70.250000L 28.906987 70.250000L 24.750000 80.250000Z" fill="none" stroke="silver" stroke-width="0.50" stroke-linecap="round" stroke-linejoin="round"/><path d="M 24.750000 125.250000L 136.001441 125.250000L 136.001441 97.389380L 116.167697 80.822442L 140.232312 22.932885L 140.232312 5.250000L 24.750000 5.250000L 24.750000 125.250000Z" fill="none" stroke="tomato" stroke-width="0.50" stroke-linecap="round" stroke-linejoin="round"/><path d="M 99.199219 65.250000C 99.199219 64.852175,99.041183 64.470644,98.759879 64.189340C 98.478574 63.908035,98.097043 63.750000,97.699219 63.750000C 97.301394 63.750000,96.919863 63.908035,96.638559 64.189340C 96.357254 64.470644,96.199219 64.852175,96.199219 65.250000C 96.199219 65.647825,96.357254 66.029356,96.638559 66.310660C 96.919863 66.591965,97.301394 66.750000,97.699219 66.750000C 98.097043 66.750000,98.478574 66.591965,98.759879 66.310660C 99.041183 66.029356,99.199219 65.647825,99.199219 65.250000Z" fill="gray" stroke="none"/><path d="M 141.732312 22.932885C 141.732312 22.535060,141.574277 22.153529,141.292972 21.872224C 141.011668 21.590920,140.630137 21.432885,140.232312 21.432885C 139.834488 21.432885,139.452957 21.590920,139.171652 21.872224C 138.890348 22.153529,138.732312 22.535060,138.732312 22.932885C 138.732312 23.330709,138.890348 23.712240,139.171652 23.993545C 139.452957 24.274849,139.834488 24.432885,140.232312 24.432885C 140.630137 24.432885,141.011668 24.274849,141.292972 23.993545C 141.574277 23.712240,141.732312 23.330709,141.732312 22.932885Z" fill="gray" stroke="none"/><path d="M 117.667697 80.822442C 117.667697 80.424618,117.509662 80.043087,117.228358 79.761782C 116.947053 79.480478,116.565522 79.322442,116.167697 79.322442C 115.769873 79.322442,115.388342 79.480478,115.107037 79.761782C 114.825733 80.043087,114.667697 80.424618,114.667697 80.822442C 114.667697 81.220267,114.825733 81.601798,115.107037 81.883102C 115.388342 82.164407,115.769873 82.322442,116.167697 82.322442C 116.565522 82.322442,116.947053 82.164407,117.228358 81.883102C 117.509662 81.601798,117.667697 81.220267,117.667697 80.822442Z" fill="gray" stroke="none"/><path d="M 126.250000 60.250000C 126.250000 59.852175,126.091965 59.470644,125.810660 59.189340C 125.529356 58.908035,125.147825 58.750000,124.750000 58.750000C 124.352175 58.750000,123.970644 58.908035,123.689340 59.189340C 123.408035 59.470644,123.250000 59.852175,123.250000 60.250000C 123.250000 60.647825,123.408035 61.029356,123.689340 61.310660C 123.970644 61.591965,124.352175 61.750000,124.750000 61.750000C 125.147825 61.750000,125.529356 61.591965,125.810660 61.310660C 126.091965 61.029356,126.250000 60.647825,126.250000 60.250000Z" fill="gray" stroke="none"/><path d="M 145.178514 14.642741C 145.178514 14.244916,145.020479 13.863385,144.739175 13.582081C 144.457870 13.300776,144.076339 13.142741,143.678514 13.142741C 143.280690 13.142741,142.899159 13.300776,142.617854 13.582081C 142.336550 13.863385,142.178514 14.244916,142.178514 14.642741C 142.178514 15.040566,142.336550 15.422096,142.617854 15.703401C 142.899159 15.984706,143.280690 16.142741,143.678514 16.142741C 144.076339 16.142741,144.457870 15.984706,144.739175 15.703401C 145.020479 15.422096,145.178514 15.040566,145.178514 14.642741Z" fill="gray" stroke="none"/><path d="M 137.501441 125.250000C 137.501441 124.852175,137.343406 124.470644,137.062101 124.189340C 136.780797 123.908035,136.399266 123.750000,136.001441 123.750000C 135.603616 123.750000,135.222085 123.908035,134.940781 124.189340C 134.659476 124.470644,134.501441 124.852175,134.501441 125.250000C 134.501441 125.647825,134.659476 126.029356,134.940781 126.310660C 135.222085 126.591965,135.603616 126.750000,136.001441 126.750000C 136.399266 126.750000,136.780797 126.591965,137.062101 126.310660C 137.343406 126.029356,137.501441 125.647825,137.501441 125.250000Z" fill="gray" stroke="none"/><path d="M 99.199219 125.250000C 99.199219 124.852175,99.041183 124.470644,98.759879 124.189340C 98.478574 123.908035,98.097043 123.750000,97.699219 123.750000C 97.301394 123.750000,96.919863 123.908035,96.638559 124.189340C 96.357254 124.470644,96.199219 124.852175,96.199219 125.250000C 96.199219 125.647825,96.357254 126.029356,96.638559 126.310660C 96.919863 126.591965,97.301394 126.750000,97.699219 126.750000C 98.097043 126.750000,98.478574 126.591965,98.759879 126.310660C 99.041183 126.029356,99.199219 125.647825,99.199219 125.250000Z" fill="gray" stroke="none"/><path d="M 137.501441 33.110620C 137.501441 32.712795,137.343406 32.331264,137.062101 32.049959C 136.780797 31.768655,136.399266 31.610620,136.001441 31.610620C 135.603616 31.610620,135.222085 31.768655,134.940781 32.049959C 134.659476 32.331264,134.501441 32.712795,134.501441 33.110620C 134.501441 33.508444,134.659476 33.889975,134.940781 34.171280C 135.222085 34.452584,135.603616 34.610620,136.001441 34.610620C 136.399266 34.610620,136.780797 34.452584,137.062101 34.171280C 137.343406 33.889975,137.501441 33.508444,137.501441 33.110620Z" fill="gray" stroke="none"/><path d="M 26.250000 60.250000C 26.250000 59.852175,26.091965 59.470644,25.810660 59.189340C 25.529356 58.908035,25.147825 58.750000,24.750000 58.750000C 24.352175 58.750000,23.970644 58.908035,23.689340 59.189340C 23.408035 59.470644,23.250000 59.852175,23.250000 60.250000C 23.250000 60.647825,23.408035 61.029356,23.689340 61.310660C 23.970644 61.591965,24.352175 61.750000,24.750000 61.750000C 25.147825 61.750000,25.529356 61.591965,25.810660 61.310660C 26.091965 61.029356,26.250000 60.647825,26.250000 60.250000Z" fill="gray" stroke="none"/><path d="M 26.250000 80.250000C 26.250000 79.852175,26.091965 79.470644,25.810660 79.189340C 25.529356 78.908035,25.147825 78.750000,24.750000 78.750000C 24.352175 78.750000,23.970644 78.908035,23.689340 79.189340C 23.408035 79.470644,23.250000 79.852175,23.250000 80.250000C 23.250000 80.647825,23.408035 81.029356,23.689340 81.310660C 23.970644 81.591965,24.352175 81.750000,24.750000 81.750000C 25.147825 81.750000,25.529356 81.591965,25.810660 81.310660C 26.091965 81.029356,26.250000 80.647825,26.250000 80.250000Z" fill="gray" stroke="none"/><text x="97.699" y="65.250" font-family="sans-serif" font-size="10.00" fill="gray" text-anchor="middle" dominant-baseline="central"></text><text x="140.232" y="22.933" font-family="sans-serif" font-size="10.00" fill="gray" text-anchor="middle" dominant-baseline="central"></text><text x="116.168" y="80.822" font-family="sans-serif" font-size="10.00" fill="gray" text-anchor="middle" dominant-baseline="central"></text><text x="124.750" y="60.250" font-family="sans-serif" font-size="10.00" fill="gray" text-anchor="middle" dominant-baseline="central"></text><text x="143.679" y="14.643" font-family="sans-serif" font-size="10.00" fill="gray" text-anchor="middle" dominant-baseline="central"></text><text x="136.001" y="125.250" font-family="sans-serif" font-size="10.00" fill="gray" text-anchor="middle" dominant-baseline="central"></text><text x="97.699" y="125.250" font-family="sans-serif" font-size="10.00" fill="gray" text-anchor="middle" dominant-baseline="central"></text><text x="136.001" y="33.111" font-family="sans-serif" font-size="10.00" fill="gray" text-anchor="middle" dominant-baseline="central"></text><text x="24.750" y="60.250" font-family="sans-serif" font-size="10.00" fill="gray" text-anchor="middle" dominant-baseline="central"></text><text x="24.750" y="80.250" font-family="sans-serif" font-size="10.00" fill="gray" text-anchor="middle" dominant-baseline="central"></text><text x="94.699" y="65.250" font-family="sans-serif" font-size="5.00" fill="navy" text-anchor="end" dominant-baseline="central">origin</text><text x="143.232" y="22.933" font-family="sans-serif" font-size="5.00" fill="navy" text-anchor="start" dominant-baseline="central">c1</text><text x="119.168" y="80.822" font-family="sans-serif" font-size="5.00" fill="navy" text-anchor="start" dominant-baseline="central">c2</text><text x="127.750" y="60.250" font-family="sans-serif" font-size="5.00" fill="navy" text-anchor="start" dominant-baseline="central">c3</text><text x="146.679" y="14.643" font-family="sans-serif" font-size="5.00" fill="navy" text-anchor="start" dominant-baseline="central">c4</text><text x="136.001" y="128.250" font-family="sans-serif" font-size="5.00" fill="navy" text-anchor="middle" dominant-baseline="hanging">c5</text><text x="97.699" y="128.250" font-family="sans-serif" font-size="5.00" fill="navy" text-anchor="middle" dominant-baseline="hanging">o1</text><text x="136.001" y="36.111" font-family="sans-serif" font-size="5.00" fill="navy" text-anchor="middle" dominant-baseline="hanging">o2</text><text x="24.750" y="63.250" font-family="sans-serif" font-size="5.00" fill="navy" text-anchor="middle" dominant-baseline="hanging">topbarleft</text><text x="24.750" y="83.250" font-family="sans-serif" font-size="5.00" fill="navy" text-anchor="middle" dominant-baseline="hanging">bottombarleft</text></svg>
