<svg xmlns="http://www.w3.org/2000/svg" viewBox="0 0 180.60000000000002 61.12586052376891"><path d="M 5.250000 55.875861C 49.618156 11.507704,115.679120 55.875861,175.350000 55.875861" fill="none" stroke="black" stroke-width="0.50" stroke-linecap="round" stroke-linejoin="round"/><path d="M 5.250000 55.875861C 48.691218 12.434642,114.855181 45.208992,175.350000 55.875861" fill="none" stroke="black" stroke-width="0.50" stroke-linecap="round" stroke-linejoin="round"/><path d="M 5.250000 55.875861C 48.398622 12.727239,115.842121 34.216764,175.350000 55.875861" fill="none" stroke="black" stroke-width="0.50" stroke-linecap="round" stroke-linejoin="round"/><path d="M 5.250000 55.875861C 49.038731 12.087129,119.068154 23.381522,175.350000 55.875861" fill="none" stroke="black" stroke-width="0.50" stroke-linecap="round" stroke-linejoin="round"/><path d="M 5.250000 55.875861C 50.839119 10.286742,124.697228 13.373138,175.350000 55.875861" fill="none" stroke="black" stroke-width="0.50" stroke-linecap="round" stroke-linejoin="round"/><path d="M 5.250000 55.875861C 53.939116 7.186745,132.578948 4.903306,175.350000 55.875861" fill="none" stroke="black" stroke-width="0.50" stroke-linecap="round" stroke-linejoin="round"/><path d="M 5.250000 55.875861C 58.375119 2.750741,142.265493 -1.428187,175.350000 55.875861" fill="none" stroke="black" stroke-width="0.50" stroke-linecap="round" stroke-linejoin="round"/><path d="M 5.250000 55.875861C 64.067094 -2.941234,153.094018 -5.271946,175.350000 55.875861" fill="none" stroke="black" stroke-width="0.50" stroke-linecap="round" stroke-linejoin="round"/><path d="M 5.250000 55.875861C 70.805550 -9.679690,164.328375 -6.630882,175.350000 55.875861" fill="none" stroke="black" stroke-width="0.50" stroke-linecap="round" stroke-linejoin="round"/><path d="M 5.250000 55.875861C 78.240095 -17.114235,175.350000 -5.904022,175.350000 55.875861" fill="none" stroke="black" stroke-width="0.50" stroke-linecap="round" stroke-linejoin="round"/></svg>
