<svg xmlns="http://www.w3.org/2000/svg" width="253.53254369097928" height="73.53254369097927" viewBox="0 0 253.53254369097928 73.53254369097927"><path d="M 3.282544 70.250000L 103.282544 10.250000" fill="none" stroke="gray" stroke-width="0.50" stroke-linecap="round" stroke-linejoin="round"/><path d="M 6.282544 70.250000C 6.282544 68.593146,6.575437 69.300253,5.403864 68.128680C 4.232291 66.957107,4.939398 67.250000,3.282544 67.250000C 1.625689 67.250000,2.332796 66.957107,1.161223 68.128680C -0.010350 69.300253,0.282544 68.593146,0.282544 70.250000C 0.282544 71.906854,-0.010350 71.199747,1.161223 72.371320C 2.332796 73.542893,1.625689 73.250000,3.282544 73.250000C 4.939398 73.250000,4.232291 73.542893,5.403864 72.371320C 6.575437 71.199747,6.282544 71.906854,6.282544 70.250000Z" fill="black" stroke="black" stroke-width="0.50" stroke-linecap="round" stroke-linejoin="round"/><path d="M 106.282544 10.250000C 106.282544 8.593146,106.575437 9.300253,105.403864 8.128680C 104.232291 6.957107,104.939398 7.250000,103.282544 7.250000C 101.625689 7.250000,102.332796 6.957107,101.161223 8.128680C 99.989650 9.300253,100.282544 8.593146,100.282544 10.250000C 100.282544 11.906854,99.989650 11.199747,101.161223 12.371320C 102.332796 13.542893,101.625689 13.250000,103.282544 13.250000C 104.939398 13.250000,104.232291 13.542893,105.403864 12.371320C 106.575437 11.199747,106.282544 11.906854,106.282544 10.250000Z" fill="black" stroke="black" stroke-width="0.50" stroke-linecap="round" stroke-linejoin="round"/><path d="M 56.282544 40.250000C 56.282544 38.593146,56.575437 39.300253,55.403864 38.128680C 54.232291 36.957107,54.939398 37.250000,53.282544 37.250000C 51.625689 37.250000,52.332796 36.957107,51.161223 38.128680C 49.989650 39.300253,50.282544 38.593146,50.282544 40.250000C 50.282544 41.906854,49.989650 41.199747,51.161223 42.371320C 52.332796 43.542893,51.625689 43.250000,53.282544 43.250000C 54.939398 43.250000,54.232291 43.542893,55.403864 42.371320C 56.575437 41.199747,56.282544 41.906854,56.282544 40.250000Z" fill="red" stroke="black" stroke-width="0.50" stroke-linecap="round" stroke-linejoin="round"/><path d="M 30.282544 55.250000C 30.282544 54.145431,30.477806 54.616835,29.696757 53.835786C 28.915709 53.054738,29.387113 53.250000,28.282544 53.250000C 27.177974 53.250000,27.649379 53.054738,26.868330 53.835786C 26.087282 54.616835,26.282544 54.145431,26.282544 55.250000C 26.282544 56.354569,26.087282 55.883165,26.868330 56.664214C 27.649379 57.445262,27.177974 57.250000,28.282544 57.250000C 29.387113 57.250000,28.915709 57.445262,29.696757 56.664214C 30.477806 55.883165,30.282544 56.354569,30.282544 55.250000Z" fill="blue" stroke="black" stroke-width="0.50" stroke-linecap="round" stroke-linejoin="round"/><path d="M 80.282544 25.250000C 80.282544 24.145431,80.477806 24.616835,79.696757 23.835786C 78.915709 23.054738,79.387113 23.250000,78.282544 23.250000C 77.177974 23.250000,77.649379 23.054738,76.868330 23.835786C 76.087282 24.616835,76.282544 24.145431,76.282544 25.250000C 76.282544 26.354569,76.087282 25.883165,76.868330 26.664214C 77.649379 27.445262,77.177974 27.250000,78.282544 27.250000C 79.387113 27.250000,78.915709 27.445262,79.696757 26.664214C 80.477806 25.883165,80.282544 26.354569,80.282544 25.250000Z" fill="green" stroke="black" stroke-width="0.50" stroke-linecap="round" stroke-linejoin="round"/><path d="M 153.282544 70.250000L 253.282544 70.250000L 203.282544 0.250000L 153.282544 70.250000Z" fill="none" stroke="navy" stroke-width="0.50" stroke-linecap="round" stroke-linejoin="round"/><path d="M 203.282544 70.250000L 228.282544 35.250000L 178.282544 35.250000L 203.282544 70.250000Z" fill="none" stroke="orange" stroke-width="0.50" stroke-linecap="round" stroke-linejoin="round"/><path d="M 205.282544 70.250000C 205.282544 69.145431,205.477806 69.616835,204.696757 68.835786C 203.915709 68.054738,204.387113 68.250000,203.282544 68.250000C 202.177974 68.250000,202.649379 68.054738,201.868330 68.835786C 201.087282 69.616835,201.282544 69.145431,201.282544 70.250000C 201.282544 71.354569,201.087282 70.883165,201.868330 71.664214C 202.649379 72.445262,202.177974 72.250000,203.282544 72.250000C 204.387113 72.250000,203.915709 72.445262,204.696757 71.664214C 205.477806 70.883165,205.282544 71.354569,205.282544 70.250000Z" fill="orange" stroke="black" stroke-width="0.50" stroke-linecap="round" stroke-linejoin="round"/><path d="M 230.282544 35.250000C 230.282544 34.145431,230.477806 34.616835,229.696757 33.835786C 228.915709 33.054738,229.387113 33.250000,228.282544 33.250000C 227.177974 33.250000,227.649379 33.054738,226.868330 33.835786C 226.087282 34.616835,226.282544 34.145431,226.282544 35.250000C 226.282544 36.354569,226.087282 35.883165,226.868330 36.664214C 227.649379 37.445262,227.177974 37.250000,228.282544 37.250000C 229.387113 37.250000,228.915709 37.445262,229.696757 36.664214C 230.477806 35.883165,230.282544 36.354569,230.282544 35.250000Z" fill="orange" stroke="black" stroke-width="0.50" stroke-linecap="round" stroke-linejoin="round"/><path d="M 180.282544 35.250000C 180.282544 34.145431,180.477806 34.616835,179.696757 33.835786C 178.915709 33.054738,179.387113 33.250000,178.282544 33.250000C 177.177974 33.250000,177.649379 33.054738,176.868330 33.835786C 176.087282 34.616835,176.282544 34.145431,176.282544 35.250000C 176.282544 36.354569,176.087282 35.883165,176.868330 36.664214C 177.649379 37.445262,177.177974 37.250000,178.282544 37.250000C 179.387113 37.250000,178.915709 37.445262,179.696757 36.664214C 180.477806 35.883165,180.282544 36.354569,180.282544 35.250000Z" fill="orange" stroke="black" stroke-width="0.50" stroke-linecap="round" stroke-linejoin="round"/><path d="M 205.785044 46.915500C 205.785044 45.534788,206.029121 46.124044,205.052811 45.147733C 204.076500 44.171422,204.665756 44.415500,203.285044 44.415500C 201.904332 44.415500,202.493587 44.171422,201.517277 45.147733C 200.540966 46.124044,200.785044 45.534788,200.785044 46.915500C 200.785044 48.296212,200.540966 47.706956,201.517277 48.683267C 202.493587 49.659578,201.904332 49.415500,203.285044 49.415500C 204.665756 49.415500,204.076500 49.659578,205.052811 48.683267C 206.029121 47.706956,205.785044 48.296212,205.785044 46.915500Z" fill="red" stroke="black" stroke-width="0.50" stroke-linecap="round" stroke-linejoin="round"/></svg>
