<svg xmlns="http://www.w3.org/2000/svg" viewBox="0 0 273.5 93.5"><path d="M 13.250000 80.250000L 113.250000 20.250000" fill="none" stroke="gray" stroke-width="0.50" stroke-linecap="round" stroke-linejoin="round"/><path d="M 16.250000 80.250000C 16.250000 79.454351,15.933929 78.691289,15.371320 78.128680C 14.808711 77.566071,14.045649 77.250000,13.250000 77.250000C 12.454351 77.250000,11.691289 77.566071,11.128680 78.128680C 10.566071 78.691289,10.250000 79.454351,10.250000 80.250000C 10.250000 81.045649,10.566071 81.808711,11.128680 82.371320C 11.691289 82.933929,12.454351 83.250000,13.250000 83.250000C 14.045649 83.250000,14.808711 82.933929,15.371320 82.371320C 15.933929 81.808711,16.250000 81.045649,16.250000 80.250000Z" fill="black" stroke="black" stroke-width="0.50" stroke-linecap="round" stroke-linejoin="round"/><path d="M 116.250000 20.250000C 116.250000 19.454351,115.933929 18.691289,115.371320 18.128680C 114.808711 17.566071,114.045649 17.250000,113.250000 17.250000C 112.454351 17.250000,111.691289 17.566071,111.128680 18.128680C 110.566071 18.691289,110.250000 19.454351,110.250000 20.250000C 110.250000 21.045649,110.566071 21.808711,111.128680 22.371320C 111.691289 22.933929,112.454351 23.250000,113.250000 23.250000C 114.045649 23.250000,114.808711 22.933929,115.371320 22.371320C 115.933929 21.808711,116.250000 21.045649,116.250000 20.250000Z" fill="black" stroke="black" stroke-width="0.50" stroke-linecap="round" stroke-linejoin="round"/><path d="M 66.250000 50.250000C 66.250000 49.454351,65.933929 48.691289,65.371320 48.128680C 64.808711 47.566071,64.045649 47.250000,63.250000 47.250000C 62.454351 47.250000,61.691289 47.566071,61.128680 48.128680C 60.566071 48.691289,60.250000 49.454351,60.250000 50.250000C 60.250000 51.045649,60.566071 51.808711,61.128680 52.371320C 61.691289 52.933929,62.454351 53.250000,63.250000 53.250000C 64.045649 53.250000,64.808711 52.933929,65.371320 52.371320C 65.933929 51.808711,66.250000 51.045649,66.250000 50.250000Z" fill="red" stroke="black" stroke-width="0.50" stroke-linecap="round" stroke-linejoin="round"/><path d="M 40.250000 65.250000C 40.250000 64.719567,40.039286 64.210859,39.664214 63.835786C 39.289141 63.460714,38.780433 63.250000,38.250000 63.250000C 37.719567 63.250000,37.210859 63.460714,36.835786 63.835786C 36.460714 64.210859,36.250000 64.719567,36.250000 65.250000C 36.250000 65.780433,36.460714 66.289141,36.835786 66.664214C 37.210859 67.039286,37.719567 67.250000,38.250000 67.250000C 38.780433 67.250000,39.289141 67.039286,39.664214 66.664214C 40.039286 66.289141,40.250000 65.780433,40.250000 65.250000Z" fill="blue" stroke="black" stroke-width="0.50" stroke-linecap="round" stroke-linejoin="round"/><path d="M 90.250000 35.250000C 90.250000 34.719567,90.039286 34.210859,89.664214 33.835786C 89.289141 33.460714,88.780433 33.250000,88.250000 33.250000C 87.719567 33.250000,87.210859 33.460714,86.835786 33.835786C 86.460714 34.210859,86.250000 34.719567,86.250000 35.250000C 86.250000 35.780433,86.460714 36.289141,86.835786 36.664214C 87.210859 37.039286,87.719567 37.250000,88.250000 37.250000C 88.780433 37.250000,89.289141 37.039286,89.664214 36.664214C 90.039286 36.289141,90.250000 35.780433,90.250000 35.250000Z" fill="green" stroke="black" stroke-width="0.50" stroke-linecap="round" stroke-linejoin="round"/><path d="M 163.250000 80.250000L 263.250000 80.250000L 213.250000 10.250000L 163.250000 80.250000Z" fill="none" stroke="navy" stroke-width="0.50" stroke-linecap="round" stroke-linejoin="round"/><path d="M 213.250000 80.250000L 238.250000 45.250000L 188.250000 45.250000L 213.250000 80.250000Z" fill="none" stroke="orange" stroke-width="0.50" stroke-linecap="round" stroke-linejoin="round"/><path d="M 215.250000 80.250000C 215.250000 79.719567,215.039286 79.210859,214.664214 78.835786C 214.289141 78.460714,213.780433 78.250000,213.250000 78.250000C 212.719567 78.250000,212.210859 78.460714,211.835786 78.835786C 211.460714 79.210859,211.250000 79.719567,211.250000 80.250000C 211.250000 80.780433,211.460714 81.289141,211.835786 81.664214C 212.210859 82.039286,212.719567 82.250000,213.250000 82.250000C 213.780433 82.250000,214.289141 82.039286,214.664214 81.664214C 215.039286 81.289141,215.250000 80.780433,215.250000 80.250000Z" fill="orange" stroke="black" stroke-width="0.50" stroke-linecap="round" stroke-linejoin="round"/><path d="M 240.250000 45.250000C 240.250000 44.719567,240.039286 44.210859,239.664214 43.835786C 239.289141 43.460714,238.780433 43.250000,238.250000 43.250000C 237.719567 43.250000,237.210859 43.460714,236.835786 43.835786C 236.460714 44.210859,236.250000 44.719567,236.250000 45.250000C 236.250000 45.780433,236.460714 46.289141,236.835786 46.664214C 237.210859 47.039286,237.719567 47.250000,238.250000 47.250000C 238.780433 47.250000,239.289141 47.039286,239.664214 46.664214C 240.039286 46.289141,240.250000 45.780433,240.250000 45.250000Z" fill="orange" stroke="black" stroke-width="0.50" stroke-linecap="round" stroke-linejoin="round"/><path d="M 190.250000 45.250000C 190.250000 44.719567,190.039286 44.210859,189.664214 43.835786C 189.289141 43.460714,188.780433 43.250000,188.250000 43.250000C 187.719567 43.250000,187.210859 43.460714,186.835786 43.835786C 186.460714 44.210859,186.250000 44.719567,186.250000 45.250000C 186.250000 45.780433,186.460714 46.289141,186.835786 46.664214C 187.210859 47.039286,187.719567 47.250000,188.250000 47.250000C 188.780433 47.250000,189.289141 47.039286,189.664214 46.664214C 190.039286 46.289141,190.250000 45.780433,190.250000 45.250000Z" fill="orange" stroke="black" stroke-width="0.50" stroke-linecap="round" stroke-linejoin="round"/><path d="M 215.752500 56.915500C 215.752500 56.252459,215.489108 55.616574,215.020267 55.147733C 214.551426 54.678892,213.915541 54.415500,213.252500 54.415500C 212.589459 54.415500,211.953574 54.678892,211.484733 55.147733C 211.015892 55.616574,210.752500 56.252459,210.752500 56.915500C 210.752500 57.578541,211.015892 58.214426,211.484733 58.683267C 211.953574 59.152108,212.589459 59.415500,213.252500 59.415500C 213.915541 59.415500,214.551426 59.152108,215.020267 58.683267C 215.489108 58.214426,215.752500 57.578541,215.752500 56.915500Z" fill="red" stroke="black" stroke-width="0.50" stroke-linecap="round" stroke-linejoin="round"/></svg>
