<svg xmlns="http://www.w3.org/2000/svg" viewBox="0 0 147.522265625 141.6693359375"><path d="M 24.034570 112.130273L 124.034570 112.130273L 74.034570 25.530273L 24.034570 112.130273Z" fill="none" stroke="black" stroke-width="0.50" stroke-linecap="round" stroke-linejoin="round"/><path d="M 100.534570 68.830273C 100.534570 68.432449,100.376535 68.050918,100.095230 67.769613C 99.813926 67.488309,99.432395 67.330273,99.034570 67.330273C 98.636746 67.330273,98.255215 67.488309,97.973910 67.769613C 97.692606 68.050918,97.534570 68.432449,97.534570 68.830273C 97.534570 69.228098,97.692606 69.609629,97.973910 69.890934C 98.255215 70.172238,98.636746 70.330273,99.034570 70.330273C 99.432395 70.330273,99.813926 70.172238,100.095230 69.890934C 100.376535 69.609629,100.534570 69.228098,100.534570 68.830273Z" fill="blue" stroke="none"/><path d="M 50.534570 68.830273C 50.534570 68.432449,50.376535 68.050918,50.095230 67.769613C 49.813926 67.488309,49.432395 67.330273,49.034570 67.330273C 48.636746 67.330273,48.255215 67.488309,47.973910 67.769613C 47.692606 68.050918,47.534570 68.432449,47.534570 68.830273C 47.534570 69.228098,47.692606 69.609629,47.973910 69.890934C 48.255215 70.172238,48.636746 70.330273,49.034570 70.330273C 49.432395 70.330273,49.813926 70.172238,50.095230 69.890934C 50.376535 69.609629,50.534570 69.228098,50.534570 68.830273Z" fill="blue" stroke="none"/><path d="M 75.534570 112.130273C 75.534570 111.732449,75.376535 111.350918,75.095230 111.069613C 74.813926 110.788309,74.432395 110.630273,74.034570 110.630273C 73.636746 110.630273,73.255215 110.788309,72.973910 111.069613C 72.692606 111.350918,72.534570 111.732449,72.534570 112.130273C 72.534570 112.528098,72.692606 112.909629,72.973910 113.190934C 73.255215 113.472238,73.636746 113.630273,74.034570 113.630273C 74.432395 113.630273,74.813926 113.472238,75.095230 113.190934C 75.376535 112.909629,75.534570 112.528098,75.534570 112.130273Z" fill="blue" stroke="none"/><path d="M 75.534570 83.260273C 75.534570 82.862449,75.376535 82.480918,75.095230 82.199613C 74.813926 81.918309,74.432395 81.760273,74.034570 81.760273C 73.636746 81.760273,73.255215 81.918309,72.973910 82.199613C 72.692606 82.480918,72.534570 82.862449,72.534570 83.260273C 72.534570 83.658098,72.692606 84.039629,72.973910 84.320934C 73.255215 84.602238,73.636746 84.760273,74.034570 84.760273C 74.432395 84.760273,74.813926 84.602238,75.095230 84.320934C 75.376535 84.039629,75.534570 83.658098,75.534570 83.260273Z" fill="red" stroke="none"/><path d="M 15.250000 125.402148L 17.999023 118.243945L 19.019531 118.243945L 21.949219 125.402148L 20.870117 125.402148L 20.035156 123.234180L 17.041992 123.234180L 16.255859 125.402148L 15.250000 125.402148L 17.315430 122.462695L 19.742188 122.462695L 18.995117 120.480273C 18.767253 119.878060,18.597982 119.383268,18.487305 118.995898C 18.396159 119.454883,18.267578 119.910612,18.101562 120.363086L 17.315430 122.462695L 15.250000 125.402148Z" fill="black" stroke="none"/><path d="M 126.866992 125.402148L 126.866992 118.243945L 129.552539 118.243945C 130.099414 118.243945,130.538053 118.316374,130.868457 118.461230C 131.198861 118.606087,131.457650 118.829069,131.644824 119.130176C 131.831999 119.431283,131.925586 119.746224,131.925586 120.075000C 131.925586 120.380990,131.842578 120.669076,131.676562 120.939258C 131.510547 121.209440,131.259896 121.427539,130.924609 121.593555C 131.357552 121.720508,131.690397 121.936979,131.923145 122.242969C 132.155892 122.548958,132.272266 122.910286,132.272266 123.326953C 132.272266 123.662240,132.201465 123.973926,132.059863 124.262012C 131.918262 124.550098,131.743294 124.772266,131.534961 124.928516C 131.326628 125.084766,131.065397 125.202767,130.751270 125.282520C 130.437142 125.362272,130.052214 125.402148,129.596484 125.402148L 126.866992 125.402148L 127.814258 121.251758L 129.362109 121.251758C 129.782031 121.251758,130.083138 121.224089,130.265430 121.168750C 130.506315 121.097135,130.687793 120.978320,130.809863 120.812305C 130.931934 120.646289,130.992969 120.437956,130.992969 120.187305C 130.992969 119.949674,130.936003 119.740527,130.822070 119.559863C 130.708138 119.379199,130.545378 119.255501,130.333789 119.188770C 130.122201 119.122038,129.759245 119.088672,129.244922 119.088672L 127.814258 119.088672L 127.814258 121.251758L 127.814258 124.557422L 129.596484 124.557422C 129.902474 124.557422,130.117318 124.546029,130.241016 124.523242C 130.459115 124.484180,130.641406 124.419076,130.787891 124.327930C 130.934375 124.236784,131.054818 124.104134,131.149219 123.929980C 131.243620 123.755827,131.290820 123.554818,131.290820 123.326953C 131.290820 123.060026,131.222461 122.828092,131.085742 122.631152C 130.949023 122.434212,130.759408 122.295866,130.516895 122.216113C 130.274382 122.136361,129.925260 122.096484,129.469531 122.096484L 127.814258 122.096484L 127.814258 124.557422L 126.866992 125.402148Z" fill="black" stroke="none"/><path d="M 76.302637 20.020508L 77.249902 20.259766C 77.051335 21.037760,76.694076 21.631022,76.178125 22.039551C 75.662174 22.448079,75.031478 22.652344,74.286035 22.652344C 73.514551 22.652344,72.887109 22.495280,72.403711 22.181152C 71.920312 21.867025,71.552474 21.412109,71.300195 20.816406C 71.047917 20.220703,70.921777 19.581055,70.921777 18.897461C 70.921777 18.152018,71.064193 17.501790,71.349023 16.946777C 71.633854 16.391764,72.039128 15.970215,72.564844 15.682129C 73.090560 15.394043,73.669173 15.250000,74.300684 15.250000C 75.016829 15.250000,75.619043 15.432292,76.107324 15.796875C 76.595605 16.161458,76.935775 16.674154,77.127832 17.334961L 76.195215 17.554688C 76.029199 17.033854,75.788314 16.654622,75.472559 16.416992C 75.156803 16.179362,74.759668 16.060547,74.281152 16.060547C 73.731022 16.060547,73.271224 16.192383,72.901758 16.456055C 72.532292 16.719727,72.272689 17.073730,72.122949 17.518066C 71.973210 17.962402,71.898340 18.420573,71.898340 18.892578C 71.898340 19.501302,71.987044 20.032715,72.164453 20.486816C 72.341862 20.940918,72.617741 21.280273,72.992090 21.504883C 73.366439 21.729492,73.771712 21.841797,74.207910 21.841797C 74.738509 21.841797,75.187728 21.688802,75.555566 21.382812C 75.923405 21.076823,76.172428 20.622721,76.302637 20.020508L 76.302637 20.020508Z" fill="black" stroke="none"/><path d="M 106.077539 73.776562C 105.752018 74.053255,105.438704 74.248568,105.137598 74.362500C 104.836491 74.476432,104.513411 74.533398,104.168359 74.533398C 103.598698 74.533398,103.160872 74.394238,102.854883 74.115918C 102.548893 73.837598,102.395898 73.481966,102.395898 73.049023C 102.395898 72.795117,102.453678 72.563184,102.569238 72.353223C 102.684798 72.143262,102.836165 71.974805,103.023340 71.847852C 103.210514 71.720898,103.421289 71.624870,103.655664 71.559766C 103.828190 71.514193,104.088607 71.470247,104.436914 71.427930C 105.146549 71.343294,105.669010 71.242383,106.004297 71.125195C 106.007552 71.004753,106.009180 70.928255,106.009180 70.895703C 106.009180 70.537630,105.926172 70.285352,105.760156 70.138867C 105.535547 69.940299,105.201888 69.841016,104.759180 69.841016C 104.345768 69.841016,104.040592 69.913444,103.843652 70.058301C 103.646712 70.203158,103.501042 70.459505,103.406641 70.827344L 102.547266 70.710156C 102.625391 70.342318,102.753971 70.045280,102.933008 69.819043C 103.112044 69.592806,103.370833 69.418652,103.709375 69.296582C 104.047917 69.174512,104.440169 69.113477,104.886133 69.113477C 105.328841 69.113477,105.688542 69.165560,105.965234 69.269727C 106.241927 69.373893,106.445378 69.504915,106.575586 69.662793C 106.705794 69.820671,106.796940 70.020052,106.849023 70.260937C 106.878320 70.410677,106.892969 70.680859,106.892969 71.071484L 106.892969 72.243359C 106.892969 73.060417,106.911686 73.577181,106.949121 73.793652C 106.986556 74.010124,107.060612 74.217643,107.171289 74.416211L 106.253320 74.416211C 106.162174 74.233919,106.103581 74.020703,106.077539 73.776562L 106.004297 71.813672C 105.685286 71.943880,105.206771 72.054557,104.568750 72.145703C 104.207422 72.197786,103.951888 72.256380,103.802148 72.321484C 103.652409 72.386589,103.536849 72.481803,103.455469 72.607129C 103.374089 72.732454,103.333398 72.871615,103.333398 73.024609C 103.333398 73.258984,103.422103 73.454297,103.599512 73.610547C 103.776921 73.766797,104.036523 73.844922,104.378320 73.844922C 104.716862 73.844922,105.017969 73.770866,105.281641 73.622754C 105.545312 73.474642,105.738997 73.272005,105.862695 73.014844C 105.957096 72.816276,106.004297 72.523307,106.004297 72.135937L 106.004297 71.813672L 106.077539 73.776562Z" fill="black" stroke="none"/><path d="M 41.942773 74.416211L 41.127344 74.416211L 41.127344 67.258008L 42.006250 67.258008L 42.006250 69.811719C 42.377344 69.346224,42.850977 69.113477,43.427148 69.113477C 43.746159 69.113477,44.048079 69.177767,44.332910 69.306348C 44.617741 69.434928,44.852116 69.615592,45.036035 69.848340C 45.219954 70.081087,45.363997 70.361849,45.468164 70.690625C 45.572331 71.019401,45.624414 71.370964,45.624414 71.745312C 45.624414 72.633984,45.404688 73.320833,44.965234 73.805859C 44.525781 74.290885,43.998438 74.533398,43.383203 74.533398C 42.771224 74.533398,42.291081 74.277865,41.942773 73.766797L 41.942773 74.416211L 41.933008 71.784375C 41.933008 72.406120,42.017643 72.855339,42.186914 73.132031C 42.463607 73.584505,42.837956 73.810742,43.309961 73.810742C 43.694076 73.810742,44.026107 73.643913,44.306055 73.310254C 44.586003 72.976595,44.725977 72.479362,44.725977 71.818555C 44.725977 71.141471,44.591699 70.641797,44.323145 70.319531C 44.054590 69.997266,43.729883 69.836133,43.349023 69.836133C 42.964909 69.836133,42.632878 70.002962,42.352930 70.336621C 42.072982 70.670280,41.933008 71.152865,41.933008 71.784375L 41.942773 74.416211Z" fill="black" stroke="none"/><path d="M 75.577539 124.402734L 76.441797 124.515039C 76.347396 125.110742,76.105697 125.577051,75.716699 125.913965C 75.327702 126.250879,74.850000 126.419336,74.283594 126.419336C 73.573958 126.419336,73.003483 126.187402,72.572168 125.723535C 72.140853 125.259668,71.925195 124.594792,71.925195 123.728906C 71.925195 123.169010,72.017969 122.679102,72.203516 122.259180C 72.389062 121.839258,72.671452 121.524316,73.050684 121.314355C 73.429915 121.104395,73.842513 120.999414,74.288477 120.999414C 74.851628 120.999414,75.312240 121.141829,75.670312 121.426660C 76.028385 121.711491,76.257878 122.115951,76.358789 122.640039L 75.504297 122.771875C 75.422917 122.423568,75.278874 122.161523,75.072168 121.985742C 74.865462 121.809961,74.615625 121.722070,74.322656 121.722070C 73.879948 121.722070,73.520247 121.880762,73.243555 122.198145C 72.966862 122.515527,72.828516 123.017643,72.828516 123.704492C 72.828516 124.401107,72.961979 124.907292,73.228906 125.223047C 73.495833 125.538802,73.844141 125.696680,74.273828 125.696680C 74.618880 125.696680,74.906966 125.590885,75.138086 125.379297C 75.369206 125.167708,75.515690 124.842187,75.577539 124.402734L 75.577539 124.402734Z" fill="black" stroke="none"/><path d="M 76.583789 78.860469L 77.477344 78.782344C 77.519661 79.140417,77.618132 79.434199,77.772754 79.663691C 77.927376 79.893184,78.167448 80.078730,78.492969 80.220332C 78.818490 80.361934,79.184701 80.432734,79.591602 80.432734C 79.952930 80.432734,80.271940 80.379023,80.548633 80.271602C 80.825326 80.164180,81.031217 80.016882,81.166309 79.829707C 81.301400 79.642533,81.368945 79.438268,81.368945 79.216914C 81.368945 78.992305,81.303841 78.796178,81.173633 78.628535C 81.043424 78.460892,80.828581 78.320104,80.529102 78.206172C 80.337044 78.131302,79.912240 78.014928,79.254688 77.857051C 78.597135 77.699173,78.136523 77.550247,77.872852 77.410273C 77.531055 77.231237,77.276335 77.009069,77.108691 76.743770C 76.941048 76.478470,76.857227 76.181432,76.857227 75.852656C 76.857227 75.491328,76.959766 75.153600,77.164844 74.839473C 77.369922 74.525345,77.669401 74.286901,78.063281 74.124141C 78.457161 73.961380,78.894987 73.880000,79.376758 73.880000C 79.907357 73.880000,80.375293 73.965449,80.780566 74.136348C 81.185840 74.307246,81.497526 74.558711,81.715625 74.890742C 81.933724 75.222773,82.050911 75.598750,82.067188 76.018672L 81.158984 76.087031C 81.110156 75.634557,80.944954 75.292760,80.663379 75.061641C 80.381803 74.830521,79.965951 74.714961,79.415820 74.714961C 78.842904 74.714961,78.425423 74.819941,78.163379 75.029902C 77.901335 75.239863,77.770313 75.492956,77.770313 75.789180C 77.770313 76.046341,77.863086 76.257930,78.048633 76.423945C 78.230924 76.589961,78.706999 76.760046,79.476855 76.934199C 80.246712 77.108353,80.774870 77.260534,81.061328 77.390742C 81.477995 77.582799,81.785612 77.826126,81.984180 78.120723C 82.182747 78.415319,82.282031 78.754674,82.282031 79.138789C 82.282031 79.519648,82.172982 79.878535,81.954883 80.215449C 81.736784 80.552363,81.423470 80.814408,81.014941 81.001582C 80.606413 81.188757,80.146615 81.282344,79.635547 81.282344C 78.987760 81.282344,78.444954 81.187943,78.007129 80.999141C 77.569303 80.810339,77.225879 80.526322,76.976855 80.147090C 76.727832 79.767858,76.596810 79.338984,76.583789 78.860469L 76.583789 78.860469Z" fill="black" stroke="none"/></svg>
