<svg xmlns="http://www.w3.org/2000/svg" width="146.7" height="123.1" viewBox="0 0 146.7 123.1"><path d="M 23.350000 104.850000L 123.350000 104.850000L 73.350000 18.250000L 23.350000 104.850000Z" fill="none" stroke="black" stroke-width="0.50" stroke-linecap="round" stroke-linejoin="round"/><path d="M 99.850000 61.550000C 99.850000 60.721573,99.996447 61.075126,99.410660 60.489340C 98.824874 59.903553,99.178427 60.050000,98.350000 60.050000C 97.521573 60.050000,97.875126 59.903553,97.289340 60.489340C 96.703553 61.075126,96.850000 60.721573,96.850000 61.550000C 96.850000 62.378427,96.703553 62.024874,97.289340 62.610660C 97.875126 63.196447,97.521573 63.050000,98.350000 63.050000C 99.178427 63.050000,98.824874 63.196447,99.410660 62.610660C 99.996447 62.024874,99.850000 62.378427,99.850000 61.550000Z" fill="blue" stroke="none"/><path d="M 49.850000 61.550000C 49.850000 60.721573,49.996447 61.075126,49.410660 60.489340C 48.824874 59.903553,49.178427 60.050000,48.350000 60.050000C 47.521573 60.050000,47.875126 59.903553,47.289340 60.489340C 46.703553 61.075126,46.850000 60.721573,46.850000 61.550000C 46.850000 62.378427,46.703553 62.024874,47.289340 62.610660C 47.875126 63.196447,47.521573 63.050000,48.350000 63.050000C 49.178427 63.050000,48.824874 63.196447,49.410660 62.610660C 49.996447 62.024874,49.850000 62.378427,49.850000 61.550000Z" fill="blue" stroke="none"/><path d="M 74.850000 104.850000C 74.850000 104.021573,74.996447 104.375126,74.410660 103.789340C 73.824874 103.203553,74.178427 103.350000,73.350000 103.350000C 72.521573 103.350000,72.875126 103.203553,72.289340 103.789340C 71.703553 104.375126,71.850000 104.021573,71.850000 104.850000C 71.850000 105.678427,71.703553 105.324874,72.289340 105.910660C 72.875126 106.496447,72.521573 106.350000,73.350000 106.350000C 74.178427 106.350000,73.824874 106.496447,74.410660 105.910660C 74.996447 105.324874,74.850000 105.678427,74.850000 104.850000Z" fill="blue" stroke="none"/><path d="M 74.850000 75.980000C 74.850000 75.151573,74.996447 75.505126,74.410660 74.919340C 73.824874 74.333553,74.178427 74.480000,73.350000 74.480000C 72.521573 74.480000,72.875126 74.333553,72.289340 74.919340C 71.703553 75.505126,71.850000 75.151573,71.850000 75.980000C 71.850000 76.808427,71.703553 76.454874,72.289340 77.040660C 72.875126 77.626447,72.521573 77.480000,73.350000 77.480000C 74.178427 77.480000,73.824874 77.626447,74.410660 77.040660C 74.996447 76.454874,74.850000 76.808427,74.850000 75.980000Z" fill="red" stroke="none"/><text x="21.250" y="106.950" font-family="sans-serif" font-size="10.00" fill="black" text-anchor="end" dominant-baseline="hanging">A</text><text x="125.450" y="106.950" font-family="sans-serif" font-size="10.00" fill="black" text-anchor="start" dominant-baseline="hanging">B</text><text x="73.350" y="15.250" font-family="sans-serif" font-size="10.00" fill="black" text-anchor="middle" dominant-baseline="text-after-edge">C</text><text x="101.350" y="61.550" font-family="sans-serif" font-size="10.00" fill="black" text-anchor="start" dominant-baseline="central">a</text><text x="45.350" y="61.550" font-family="sans-serif" font-size="10.00" fill="black" text-anchor="end" dominant-baseline="central">b</text><text x="73.350" y="107.850" font-family="sans-serif" font-size="10.00" fill="black" text-anchor="middle" dominant-baseline="hanging">c</text><text x="75.450" y="73.880" font-family="sans-serif" font-size="10.00" fill="black" text-anchor="start" dominant-baseline="text-after-edge">S</text></svg>
