<svg xmlns="http://www.w3.org/2000/svg" viewBox="0 0 93.89142857142856 191.57142857142856"><path d="M 56.820000 178.071429L 77.391429 13.500000L 28.020000 178.071429L 41.110909 20.980519L 56.820000 178.071429L 16.500000 16.791429L 28.020000 178.071429" fill="none" stroke="black" stroke-width="0.50" stroke-linecap="round" stroke-linejoin="round"/><path d="M 56.820000 178.071429L 28.020000 178.071429" fill="none" stroke="black" stroke-width="1.00" stroke-linecap="round" stroke-linejoin="round"/><path d="M 64.020000 120.471429L 20.820000 77.271429" fill="none" stroke="black" stroke-width="1.00" stroke-linecap="round" stroke-linejoin="round"/><path d="M 58.320000 178.071429C 58.320000 177.673604,58.161965 177.292073,57.880660 177.010768C 57.599356 176.729464,57.217825 176.571429,56.820000 176.571429C 56.422175 176.571429,56.040644 176.729464,55.759340 177.010768C 55.478035 177.292073,55.320000 177.673604,55.320000 178.071429C 55.320000 178.469253,55.478035 178.850784,55.759340 179.132089C 56.040644 179.413393,56.422175 179.571429,56.820000 179.571429C 57.217825 179.571429,57.599356 179.413393,57.880660 179.132089C 58.161965 178.850784,58.320000 178.469253,58.320000 178.071429Z" fill="black" stroke="none"/><path d="M 29.520000 178.071429C 29.520000 177.673604,29.361965 177.292073,29.080660 177.010768C 28.799356 176.729464,28.417825 176.571429,28.020000 176.571429C 27.622175 176.571429,27.240644 176.729464,26.959340 177.010768C 26.678035 177.292073,26.520000 177.673604,26.520000 178.071429C 26.520000 178.469253,26.678035 178.850784,26.959340 179.132089C 27.240644 179.413393,27.622175 179.571429,28.020000 179.571429C 28.417825 179.571429,28.799356 179.413393,29.080660 179.132089C 29.361965 178.850784,29.520000 178.469253,29.520000 178.071429Z" fill="black" stroke="none"/><path d="M 65.520000 120.471429C 65.520000 120.073604,65.361965 119.692073,65.080660 119.410768C 64.799356 119.129464,64.417825 118.971429,64.020000 118.971429C 63.622175 118.971429,63.240644 119.129464,62.959340 119.410768C 62.678035 119.692073,62.520000 120.073604,62.520000 120.471429C 62.520000 120.869253,62.678035 121.250784,62.959340 121.532089C 63.240644 121.813393,63.622175 121.971429,64.020000 121.971429C 64.417825 121.971429,64.799356 121.813393,65.080660 121.532089C 65.361965 121.250784,65.520000 120.869253,65.520000 120.471429Z" fill="black" stroke="none"/><path d="M 22.320000 77.271429C 22.320000 76.873604,22.161965 76.492073,21.880660 76.210768C 21.599356 75.929464,21.217825 75.771429,20.820000 75.771429C 20.422175 75.771429,20.040644 75.929464,19.759340 76.210768C 19.478035 76.492073,19.320000 76.873604,19.320000 77.271429C 19.320000 77.669253,19.478035 78.050784,19.759340 78.332089C 20.040644 78.613393,20.422175 78.771429,20.820000 78.771429C 21.217825 78.771429,21.599356 78.613393,21.880660 78.332089C 22.161965 78.050784,22.320000 77.669253,22.320000 77.271429Z" fill="black" stroke="none"/><path d="M 78.891429 13.500000C 78.891429 13.102175,78.733393 12.720644,78.452089 12.439340C 78.170784 12.158035,77.789253 12.000000,77.391429 12.000000C 76.993604 12.000000,76.612073 12.158035,76.330768 12.439340C 76.049464 12.720644,75.891429 13.102175,75.891429 13.500000C 75.891429 13.897825,76.049464 14.279356,76.330768 14.560660C 76.612073 14.841965,76.993604 15.000000,77.391429 15.000000C 77.789253 15.000000,78.170784 14.841965,78.452089 14.560660C 78.733393 14.279356,78.891429 13.897825,78.891429 13.500000Z" fill="black" stroke="none"/><path d="M 42.610909 20.980519C 42.610909 20.582695,42.452874 20.201164,42.171569 19.919859C 41.890265 19.638555,41.508734 19.480519,41.110909 19.480519C 40.713084 19.480519,40.331553 19.638555,40.050249 19.919859C 39.768944 20.201164,39.610909 20.582695,39.610909 20.980519C 39.610909 21.378344,39.768944 21.759875,40.050249 22.041180C 40.331553 22.322484,40.713084 22.480519,41.110909 22.480519C 41.508734 22.480519,41.890265 22.322484,42.171569 22.041180C 42.452874 21.759875,42.610909 21.378344,42.610909 20.980519Z" fill="black" stroke="none"/><path d="M 18.000000 16.791429C 18.000000 16.393604,17.841965 16.012073,17.560660 15.730768C 17.279356 15.449464,16.897825 15.291429,16.500000 15.291429C 16.102175 15.291429,15.720644 15.449464,15.439340 15.730768C 15.158035 16.012073,15.000000 16.393604,15.000000 16.791429C 15.000000 17.189253,15.158035 17.570784,15.439340 17.852089C 15.720644 18.133393,16.102175 18.291429,16.500000 18.291429C 16.897825 18.291429,17.279356 18.133393,17.560660 17.852089C 17.841965 17.570784,18.000000 17.189253,18.000000 16.791429Z" fill="black" stroke="none"/><text x="56.820" y="181.071" font-family="sans-serif" font-size="10.00" fill="black" text-anchor="middle" dominant-baseline="hanging">1</text><text x="28.020" y="181.071" font-family="sans-serif" font-size="10.00" fill="black" text-anchor="middle" dominant-baseline="hanging">2</text><text x="67.020" y="120.471" font-family="sans-serif" font-size="10.00" fill="black" text-anchor="start" dominant-baseline="central">3</text><text x="17.820" y="77.271" font-family="sans-serif" font-size="10.00" fill="black" text-anchor="end" dominant-baseline="central">6</text><text x="77.391" y="10.500" font-family="sans-serif" font-size="10.00" fill="black" text-anchor="middle" dominant-baseline="text-after-edge">20</text><text x="41.111" y="17.981" font-family="sans-serif" font-size="10.00" fill="black" text-anchor="middle" dominant-baseline="text-after-edge">30</text><text x="16.500" y="13.791" font-family="sans-serif" font-size="10.00" fill="black" text-anchor="middle" dominant-baseline="text-after-edge">40</text></svg>
