<svg xmlns="http://www.w3.org/2000/svg" viewBox="0 0 131.88957502187685 120.5"><path d="M 15.944788 110.250000C -2.068261 73.300157,24.838087 30.250000,65.944788 30.250000C 107.051488 30.250000,133.957836 73.300157,115.944788 110.250000" fill="none" stroke="black" stroke-width="0.50" stroke-linecap="round" stroke-linejoin="round"/><path d="M 15.944788 60.250000L 115.944788 60.250000" fill="none" stroke="blue" stroke-width="0.50" stroke-linecap="round" stroke-linejoin="round" stroke-dasharray="3.00 3.00"/><path d="M 65.944788 110.250000L 65.944788 10.250000" fill="none" stroke="red" stroke-width="0.50" stroke-linecap="round" stroke-linejoin="round" stroke-dasharray="3.00 3.00"/><path d="M 68.944788 30.250000C 68.944788 29.454351,68.628717 28.691289,68.066108 28.128680C 67.503499 27.566071,66.740437 27.250000,65.944788 27.250000C 65.149138 27.250000,64.386076 27.566071,63.823467 28.128680C 63.260858 28.691289,62.944788 29.454351,62.944788 30.250000C 62.944788 31.045649,63.260858 31.808711,63.823467 32.371320C 64.386076 32.933929,65.149138 33.250000,65.944788 33.250000C 66.740437 33.250000,67.503499 32.933929,68.066108 32.371320C 68.628717 31.808711,68.944788 31.045649,68.944788 30.250000Z" fill="green" stroke="black" stroke-width="0.50" stroke-linecap="round" stroke-linejoin="round"/></svg>
