<svg xmlns="http://www.w3.org/2000/svg" width="131.88957502187685" height="120.5" viewBox="0 0 131.88957502187685 120.5"><path d="M 15.944788 110.250000C -2.068261 73.300157,24.838087 30.250000,65.944788 30.250000C 107.051488 30.250000,133.957836 73.300157,115.944788 110.250000" fill="none" stroke="black" stroke-width="0.50" stroke-linecap="round" stroke-linejoin="round"/><path d="M 15.944788 60.250000L 115.944788 60.250000" fill="none" stroke="blue" stroke-width="0.50" stroke-linecap="round" stroke-linejoin="round" stroke-dasharray="3.00 3.00"/><path d="M 65.944788 110.250000L 65.944788 10.250000" fill="none" stroke="red" stroke-width="0.50" stroke-linecap="round" stroke-linejoin="round" stroke-dasharray="3.00 3.00"/><path d="M 68.944788 30.250000C 68.944788 28.593146,69.237681 29.300253,68.066108 28.128680C 66.894535 26.957107,67.601642 27.250000,65.944788 27.250000C 64.287933 27.250000,64.995040 26.957107,63.823467 28.128680C 62.651894 29.300253,62.944788 28.593146,62.944788 30.250000C 62.944788 31.906854,62.651894 31.199747,63.823467 32.371320C 64.995040 33.542893,64.287933 33.250000,65.944788 33.250000C 67.601642 33.250000,66.894535 33.542893,68.066108 32.371320C 69.237681 31.199747,68.944788 31.906854,68.944788 30.250000Z" fill="green" stroke="black" stroke-width="0.50" stroke-linecap="round" stroke-linejoin="round"/></svg>
