<svg xmlns="http://www.w3.org/2000/svg" viewBox="0 0 276.19478751093845 102.5"><path d="M 15.944788 92.250000C -2.068261 55.300157,24.838087 12.250000,65.944788 12.250000C 107.051488 12.250000,133.957836 55.300157,115.944788 92.250000" fill="none" stroke="blue" stroke-width="0.50" stroke-linecap="round" stroke-linejoin="round"/><path d="M 67.944788 12.250000C 67.944788 11.719567,67.734074 11.210859,67.359001 10.835786C 66.983928 10.460714,66.475220 10.250000,65.944788 10.250000C 65.414355 10.250000,64.905647 10.460714,64.530574 10.835786C 64.155501 11.210859,63.944788 11.719567,63.944788 12.250000C 63.944788 12.780433,64.155501 13.289141,64.530574 13.664214C 64.905647 14.039286,65.414355 14.250000,65.944788 14.250000C 66.475220 14.250000,66.983928 14.039286,67.359001 13.664214C 67.734074 13.289141,67.944788 12.780433,67.944788 12.250000Z" fill="red" stroke="black" stroke-width="0.50" stroke-linecap="round" stroke-linejoin="round"/><path d="M 165.944788 92.250000L 265.944788 12.250000" fill="none" stroke="green" stroke-width="0.50" stroke-linecap="round" stroke-linejoin="round"/><path d="M 165.944788 12.250000L 265.944788 92.250000" fill="none" stroke="purple" stroke-width="0.50" stroke-linecap="round" stroke-linejoin="round"/><path d="M 218.895959 52.289062C 218.895959 51.493413,218.579889 50.730351,218.017280 50.167742C 217.454671 49.605133,216.691609 49.289062,215.895959 49.289062C 215.100310 49.289062,214.337248 49.605133,213.774639 50.167742C 213.212030 50.730351,212.895959 51.493413,212.895959 52.289062C 212.895959 53.084712,213.212030 53.847774,213.774639 54.410383C 214.337248 54.972992,215.100310 55.289062,215.895959 55.289062C 216.691609 55.289062,217.454671 54.972992,218.017280 54.410383C 218.579889 53.847774,218.895959 53.084712,218.895959 52.289062Z" fill="orange" stroke="black" stroke-width="0.50" stroke-linecap="round" stroke-linejoin="round"/></svg>
