<svg xmlns="http://www.w3.org/2000/svg" width="256.19478751093845" height="82.52169579398618" viewBox="0 0 256.19478751093845 82.52169579398618"><path d="M 5.944788 82.271696C -12.068261 45.321853,14.838087 2.271696,55.944788 2.271696C 97.051488 2.271696,123.957836 45.321853,105.944788 82.271696" fill="none" stroke="blue" stroke-width="0.50" stroke-linecap="round" stroke-linejoin="round"/><path d="M 57.944788 2.271696C 57.944788 1.167126,58.140050 1.638531,57.359001 0.857482C 56.577952 0.076434,57.049357 0.271696,55.944788 0.271696C 54.840218 0.271696,55.311623 0.076434,54.530574 0.857482C 53.749525 1.638531,53.944788 1.167126,53.944788 2.271696C 53.944788 3.376265,53.749525 2.904861,54.530574 3.685909C 55.311623 4.466958,54.840218 4.271696,55.944788 4.271696C 57.049357 4.271696,56.577952 4.466958,57.359001 3.685909C 58.140050 2.904861,57.944788 3.376265,57.944788 2.271696Z" fill="red" stroke="black" stroke-width="0.50" stroke-linecap="round" stroke-linejoin="round"/><path d="M 155.944788 82.271696L 255.944788 2.271696" fill="none" stroke="green" stroke-width="0.50" stroke-linecap="round" stroke-linejoin="round"/><path d="M 155.944788 2.271696L 255.944788 82.271696" fill="none" stroke="purple" stroke-width="0.50" stroke-linecap="round" stroke-linejoin="round"/><path d="M 208.895959 42.310758C 208.895959 40.653904,209.188853 41.361011,208.017280 40.189438C 206.845707 39.017865,207.552814 39.310758,205.895959 39.310758C 204.239105 39.310758,204.946212 39.017865,203.774639 40.189438C 202.603066 41.361011,202.895959 40.653904,202.895959 42.310758C 202.895959 43.967613,202.603066 43.260506,203.774639 44.432079C 204.946212 45.603652,204.239105 45.310758,205.895959 45.310758C 207.552814 45.310758,206.845707 45.603652,208.017280 44.432079C 209.188853 43.260506,208.895959 43.967613,208.895959 42.310758Z" fill="orange" stroke="black" stroke-width="0.50" stroke-linecap="round" stroke-linejoin="round"/></svg>
