<svg xmlns="http://www.w3.org/2000/svg" width="115.77119742482726" height="51.04239484965454" viewBox="0 0 115.77119742482726 51.04239484965454"><path d="M 50.521197 25.521197C 50.521197 11.714079,52.961974 17.606635,43.198867 7.843528C 33.435760 -1.919579,39.328316 0.521197,25.521197 0.521197C 11.714079 0.521197,17.606635 -1.919579,7.843528 7.843528C -1.919579 17.606635,0.521197 11.714079,0.521197 25.521197C 0.521197 39.328316,-1.919579 33.435760,7.843528 43.198867C 17.606635 52.961974,11.714079 50.521197,25.521197 50.521197C 39.328316 50.521197,33.435760 52.961974,43.198867 43.198867C 52.961974 33.435760,50.521197 39.328316,50.521197 25.521197Z" fill="none" stroke="black" stroke-width="0.50" stroke-linecap="round" stroke-linejoin="round"/><path d="M 85.521197 40.521197L 115.521197 40.521197L 115.521197 10.521197L 85.521197 10.521197L 85.521197 40.521197Z" fill="none" stroke="black" stroke-width="0.50" stroke-linecap="round" stroke-linejoin="round"/></svg>
