<svg xmlns="http://www.w3.org/2000/svg" viewBox="0 0 125.5 60.5"><path d="M 55.250000 30.250000C 55.250000 23.619588,52.616079 17.260740,47.927670 12.572330C 43.239260 7.883921,36.880412 5.250000,30.250000 5.250000C 23.619588 5.250000,17.260740 7.883921,12.572330 12.572330C 7.883921 17.260740,5.250000 23.619588,5.250000 30.250000C 5.250000 36.880412,7.883921 43.239260,12.572330 47.927670C 17.260740 52.616079,23.619588 55.250000,30.250000 55.250000C 36.880412 55.250000,43.239260 52.616079,47.927670 47.927670C 52.616079 43.239260,55.250000 36.880412,55.250000 30.250000Z" fill="none" stroke="black" stroke-width="0.50" stroke-linecap="round" stroke-linejoin="round"/><path d="M 90.250000 45.250000L 120.250000 45.250000L 120.250000 15.250000L 90.250000 15.250000L 90.250000 45.250000Z" fill="none" stroke="black" stroke-width="0.50" stroke-linecap="round" stroke-linejoin="round"/></svg>
