<svg xmlns="http://www.w3.org/2000/svg" viewBox="0 0 223.72398471058332 83.01744903115537"><path d="M 10.500000 72.517449L 40.500000 22.517449L 90.500000 12.517449L 130.500000 42.517449L 170.500000 22.517449L 210.500000 72.517449" fill="none" stroke="gray" stroke-width="0.50" stroke-linecap="round" stroke-linejoin="round" stroke-dasharray="3.00 3.00"/><path d="M 10.500000 72.517449C 14.538795 52.930288,25.117821 35.298579,40.500000 22.517449C 55.039992 10.436096,74.364275 3.709623,90.500000 12.517449C 105.498102 20.704293,112.688253 41.618441,130.500000 42.517449C 146.170552 43.308385,155.963693 27.049562,170.500000 22.517449C 200.378292 13.202029,226.146864 45.412744,210.500000 72.517449" fill="none" stroke="steelblue" stroke-width="1.00" stroke-linecap="round" stroke-linejoin="round"/><path d="M 12.500000 72.517449C 12.500000 71.987016,12.289286 71.478308,11.914214 71.103235C 11.539141 70.728163,11.030433 70.517449,10.500000 70.517449C 9.969567 70.517449,9.460859 70.728163,9.085786 71.103235C 8.710714 71.478308,8.500000 71.987016,8.500000 72.517449C 8.500000 73.047882,8.710714 73.556590,9.085786 73.931663C 9.460859 74.306735,9.969567 74.517449,10.500000 74.517449C 11.030433 74.517449,11.539141 74.306735,11.914214 73.931663C 12.289286 73.556590,12.500000 73.047882,12.500000 72.517449Z" fill="steelblue" stroke="black" stroke-width="0.50" stroke-linecap="round" stroke-linejoin="round"/><path d="M 42.500000 22.517449C 42.500000 21.987016,42.289286 21.478308,41.914214 21.103235C 41.539141 20.728163,41.030433 20.517449,40.500000 20.517449C 39.969567 20.517449,39.460859 20.728163,39.085786 21.103235C 38.710714 21.478308,38.500000 21.987016,38.500000 22.517449C 38.500000 23.047882,38.710714 23.556590,39.085786 23.931663C 39.460859 24.306735,39.969567 24.517449,40.500000 24.517449C 41.030433 24.517449,41.539141 24.306735,41.914214 23.931663C 42.289286 23.556590,42.500000 23.047882,42.500000 22.517449Z" fill="steelblue" stroke="black" stroke-width="0.50" stroke-linecap="round" stroke-linejoin="round"/><path d="M 92.500000 12.517449C 92.500000 11.987016,92.289286 11.478308,91.914214 11.103235C 91.539141 10.728163,91.030433 10.517449,90.500000 10.517449C 89.969567 10.517449,89.460859 10.728163,89.085786 11.103235C 88.710714 11.478308,88.500000 11.987016,88.500000 12.517449C 88.500000 13.047882,88.710714 13.556590,89.085786 13.931663C 89.460859 14.306735,89.969567 14.517449,90.500000 14.517449C 91.030433 14.517449,91.539141 14.306735,91.914214 13.931663C 92.289286 13.556590,92.500000 13.047882,92.500000 12.517449Z" fill="steelblue" stroke="black" stroke-width="0.50" stroke-linecap="round" stroke-linejoin="round"/><path d="M 132.500000 42.517449C 132.500000 41.987016,132.289286 41.478308,131.914214 41.103235C 131.539141 40.728163,131.030433 40.517449,130.500000 40.517449C 129.969567 40.517449,129.460859 40.728163,129.085786 41.103235C 128.710714 41.478308,128.500000 41.987016,128.500000 42.517449C 128.500000 43.047882,128.710714 43.556590,129.085786 43.931663C 129.460859 44.306735,129.969567 44.517449,130.500000 44.517449C 131.030433 44.517449,131.539141 44.306735,131.914214 43.931663C 132.289286 43.556590,132.500000 43.047882,132.500000 42.517449Z" fill="steelblue" stroke="black" stroke-width="0.50" stroke-linecap="round" stroke-linejoin="round"/><path d="M 172.500000 22.517449C 172.500000 21.987016,172.289286 21.478308,171.914214 21.103235C 171.539141 20.728163,171.030433 20.517449,170.500000 20.517449C 169.969567 20.517449,169.460859 20.728163,169.085786 21.103235C 168.710714 21.478308,168.500000 21.987016,168.500000 22.517449C 168.500000 23.047882,168.710714 23.556590,169.085786 23.931663C 169.460859 24.306735,169.969567 24.517449,170.500000 24.517449C 171.030433 24.517449,171.539141 24.306735,171.914214 23.931663C 172.289286 23.556590,172.500000 23.047882,172.500000 22.517449Z" fill="steelblue" stroke="black" stroke-width="0.50" stroke-linecap="round" stroke-linejoin="round"/><path d="M 212.500000 72.517449C 212.500000 71.987016,212.289286 71.478308,211.914214 71.103235C 211.539141 70.728163,211.030433 70.517449,210.500000 70.517449C 209.969567 70.517449,209.460859 70.728163,209.085786 71.103235C 208.710714 71.478308,208.500000 71.987016,208.500000 72.517449C 208.500000 73.047882,208.710714 73.556590,209.085786 73.931663C 209.460859 74.306735,209.969567 74.517449,210.500000 74.517449C 211.030433 74.517449,211.539141 74.306735,211.914214 73.931663C 212.289286 73.556590,212.500000 73.047882,212.500000 72.517449Z" fill="steelblue" stroke="black" stroke-width="0.50" stroke-linecap="round" stroke-linejoin="round"/></svg>
