<svg xmlns="http://www.w3.org/2000/svg" viewBox="0 0 167 125.9"><path d="M 23.500000 108.400000L 143.500000 108.400000L 73.500000 18.400000L 23.500000 108.400000Z" fill="none" stroke="black" stroke-width="0.80" stroke-linecap="round" stroke-linejoin="round"/><path d="M 23.500000 108.400000L 108.500000 63.400000" fill="none" stroke="steelblue" stroke-width="0.50" stroke-linecap="round" stroke-linejoin="round" stroke-dasharray="3.00 3.00"/><path d="M 143.500000 108.400000L 48.500000 63.400000" fill="none" stroke="steelblue" stroke-width="0.50" stroke-linecap="round" stroke-linejoin="round" stroke-dasharray="3.00 3.00"/><path d="M 83.166667 78.400000C 83.166667 77.604351,82.850596 76.841289,82.287987 76.278680C 81.725378 75.716071,80.962316 75.400000,80.166667 75.400000C 79.371017 75.400000,78.607955 75.716071,78.045346 76.278680C 77.482737 76.841289,77.166667 77.604351,77.166667 78.400000C 77.166667 79.195649,77.482737 79.958711,78.045346 80.521320C 78.607955 81.083929,79.371017 81.400000,80.166667 81.400000C 80.962316 81.400000,81.725378 81.083929,82.287987 80.521320C 82.850596 79.958711,83.166667 79.195649,83.166667 78.400000Z" fill="tomato" stroke="black" stroke-width="0.50" stroke-linecap="round" stroke-linejoin="round"/><path d="M 25.000000 108.400000C 25.000000 108.002175,24.841965 107.620644,24.560660 107.339340C 24.279356 107.058035,23.897825 106.900000,23.500000 106.900000C 23.102175 106.900000,22.720644 107.058035,22.439340 107.339340C 22.158035 107.620644,22.000000 108.002175,22.000000 108.400000C 22.000000 108.797825,22.158035 109.179356,22.439340 109.460660C 22.720644 109.741965,23.102175 109.900000,23.500000 109.900000C 23.897825 109.900000,24.279356 109.741965,24.560660 109.460660C 24.841965 109.179356,25.000000 108.797825,25.000000 108.400000Z" fill="black" stroke="none"/><path d="M 145.000000 108.400000C 145.000000 108.002175,144.841965 107.620644,144.560660 107.339340C 144.279356 107.058035,143.897825 106.900000,143.500000 106.900000C 143.102175 106.900000,142.720644 107.058035,142.439340 107.339340C 142.158035 107.620644,142.000000 108.002175,142.000000 108.400000C 142.000000 108.797825,142.158035 109.179356,142.439340 109.460660C 142.720644 109.741965,143.102175 109.900000,143.500000 109.900000C 143.897825 109.900000,144.279356 109.741965,144.560660 109.460660C 144.841965 109.179356,145.000000 108.797825,145.000000 108.400000Z" fill="black" stroke="none"/><path d="M 75.000000 18.400000C 75.000000 18.002175,74.841965 17.620644,74.560660 17.339340C 74.279356 17.058035,73.897825 16.900000,73.500000 16.900000C 73.102175 16.900000,72.720644 17.058035,72.439340 17.339340C 72.158035 17.620644,72.000000 18.002175,72.000000 18.400000C 72.000000 18.797825,72.158035 19.179356,72.439340 19.460660C 72.720644 19.741965,73.102175 19.900000,73.500000 19.900000C 73.897825 19.900000,74.279356 19.741965,74.560660 19.460660C 74.841965 19.179356,75.000000 18.797825,75.000000 18.400000Z" fill="black" stroke="none"/><text x="21.400" y="110.500" font-family="sans-serif" font-size="10.00" fill="black" text-anchor="end" dominant-baseline="hanging">A</text><text x="145.600" y="110.500" font-family="sans-serif" font-size="10.00" fill="black" text-anchor="start" dominant-baseline="hanging">B</text><text x="73.500" y="15.400" font-family="sans-serif" font-size="10.00" fill="black" text-anchor="middle" dominant-baseline="text-after-edge">C</text></svg>
