<svg xmlns="http://www.w3.org/2000/svg" width="100.5" height="110.5" viewBox="0 0 100.5 110.5"><path d="M 0.250000 50.250000C 0.250000 22.635763,22.635763 0.250000,50.250000 0.250000C 77.864237 0.250000,100.250000 22.635763,100.250000 50.250000" fill="none" stroke="black" stroke-width="0.50" stroke-linecap="round" stroke-linejoin="round"/><path d="M 0.250000 50.250000C 9.018538 41.478099,37.208579 0.250000,50.250000 0.250000C 63.291421 0.250000,91.481462 41.478099,100.250000 50.250000" fill="none" stroke="blue" stroke-width="0.50" stroke-linecap="round" stroke-linejoin="round"/><path d="M 0.250000 50.250000L 50.250000 0.250000L 100.250000 50.250000" fill="none" stroke="red" stroke-width="0.50" stroke-linecap="round" stroke-linejoin="round"/><path d="M 0.250000 80.250000C 23.637303 56.864374,37.208146 30.250000,50.250000 30.250000C 63.291854 30.250000,76.862697 56.864374,100.250000 80.250000" fill="none" stroke="green" stroke-width="0.50" stroke-linecap="round" stroke-linejoin="round"/><path d="M 0.250000 110.250000C 10.395853 85.755745,24.846731 60.250000,50.250000 60.250000C 75.653269 60.250000,90.104147 85.755745,100.250000 110.250000" fill="none" stroke="purple" stroke-width="0.50" stroke-linecap="round" stroke-linejoin="round"/></svg>
