<svg xmlns="http://www.w3.org/2000/svg" viewBox="0 0 414.7510716998171 92.41"><path d="M 66.460000 67.160000L 96.460000 67.160000L 96.460000 37.160000L 66.460000 37.160000L 66.460000 67.160000Z" fill="none" stroke="gray" stroke-width="0.50" stroke-linecap="round" stroke-linejoin="round"/><path d="M 31.460000 52.670000L 52.670000 31.460000L 31.460000 10.250000L 10.250000 31.460000L 31.460000 52.670000Z" fill="none" stroke="blue" stroke-width="0.50" stroke-linecap="round" stroke-linejoin="round"/><path d="M 151.460000 52.160000L 168.780508 42.160000L 158.780508 24.839492L 141.460000 34.839492L 151.460000 52.160000Z" fill="none" stroke="red" stroke-width="0.50" stroke-linecap="round" stroke-linejoin="round"/><path d="M 221.460000 62.160000L 241.460000 62.160000L 241.460000 42.160000L 221.460000 42.160000L 221.460000 62.160000Z" fill="none" stroke="lightgray" stroke-width="0.50" stroke-linecap="round" stroke-linejoin="round"/><path d="M 231.460000 66.302136L 245.602136 52.160000L 231.460000 38.017864L 217.317864 52.160000L 231.460000 66.302136Z" fill="none" stroke="green" stroke-width="0.50" stroke-linecap="round" stroke-linejoin="round"/><path d="M 233.460000 52.160000C 233.460000 51.629567,233.249286 51.120859,232.874214 50.745786C 232.499141 50.370714,231.990433 50.160000,231.460000 50.160000C 230.929567 50.160000,230.420859 50.370714,230.045786 50.745786C 229.670714 51.120859,229.460000 51.629567,229.460000 52.160000C 229.460000 52.690433,229.670714 53.199141,230.045786 53.574214C 230.420859 53.949286,230.929567 54.160000,231.460000 54.160000C 231.990433 54.160000,232.499141 53.949286,232.874214 53.574214C 233.249286 53.199141,233.460000 52.690433,233.460000 52.160000Z" fill="green" stroke="black" stroke-width="0.50" stroke-linecap="round" stroke-linejoin="round"/><path d="M 281.460000 72.160000C 271.087831 51.552459,288.772553 27.972830,311.460000 32.160000C 325.393279 34.731511,334.445251 48.309469,331.460000 62.160000" fill="none" stroke="purple" stroke-width="0.50" stroke-linecap="round" stroke-linejoin="round"/><path d="M 401.460000 72.160000C 411.832169 51.552459,394.147447 27.972830,371.460000 32.160000C 357.526721 34.731511,348.474749 48.309469,351.460000 62.160000" fill="none" stroke="orange" stroke-width="0.50" stroke-linecap="round" stroke-linejoin="round"/><path d="M 341.460000 82.160000L 341.460000 22.160000" fill="none" stroke="gray" stroke-width="0.50" stroke-linecap="round" stroke-linejoin="round" stroke-dasharray="3.00 3.00"/></svg>
