<svg xmlns="http://www.w3.org/2000/svg" width="394.7510716998171" height="72.41" viewBox="0 0 394.7510716998171 72.41"><path d="M 56.460000 57.160000L 86.460000 57.160000L 86.460000 27.160000L 56.460000 27.160000L 56.460000 57.160000Z" fill="none" stroke="gray" stroke-width="0.50" stroke-linecap="round" stroke-linejoin="round"/><path d="M 21.460000 42.670000L 42.670000 21.460000L 21.460000 0.250000L 0.250000 21.460000L 21.460000 42.670000Z" fill="none" stroke="blue" stroke-width="0.50" stroke-linecap="round" stroke-linejoin="round"/><path d="M 141.460000 42.160000L 158.780508 32.160000L 148.780508 14.839492L 131.460000 24.839492L 141.460000 42.160000Z" fill="none" stroke="red" stroke-width="0.50" stroke-linecap="round" stroke-linejoin="round"/><path d="M 211.460000 52.160000L 231.460000 52.160000L 231.460000 32.160000L 211.460000 32.160000L 211.460000 52.160000Z" fill="none" stroke="lightgray" stroke-width="0.50" stroke-linecap="round" stroke-linejoin="round"/><path d="M 221.460000 56.302136L 235.602136 42.160000L 221.460000 28.017864L 207.317864 42.160000L 221.460000 56.302136Z" fill="none" stroke="green" stroke-width="0.50" stroke-linecap="round" stroke-linejoin="round"/><path d="M 223.460000 42.160000C 223.460000 41.055431,223.655262 41.526835,222.874214 40.745786C 222.093165 39.964738,222.564569 40.160000,221.460000 40.160000C 220.355431 40.160000,220.826835 39.964738,220.045786 40.745786C 219.264738 41.526835,219.460000 41.055431,219.460000 42.160000C 219.460000 43.264569,219.264738 42.793165,220.045786 43.574214C 220.826835 44.355262,220.355431 44.160000,221.460000 44.160000C 222.564569 44.160000,222.093165 44.355262,222.874214 43.574214C 223.655262 42.793165,223.460000 43.264569,223.460000 42.160000Z" fill="green" stroke="black" stroke-width="0.50" stroke-linecap="round" stroke-linejoin="round"/><path d="M 271.460000 62.160000C 261.087831 41.552459,278.772553 17.972830,301.460000 22.160000C 315.393279 24.731511,324.445251 38.309469,321.460000 52.160000" fill="none" stroke="purple" stroke-width="0.50" stroke-linecap="round" stroke-linejoin="round"/><path d="M 391.460000 62.160000C 401.832169 41.552459,384.147447 17.972830,361.460000 22.160000C 347.526721 24.731511,338.474749 38.309469,341.460000 52.160000" fill="none" stroke="orange" stroke-width="0.50" stroke-linecap="round" stroke-linejoin="round"/><path d="M 331.460000 72.160000L 331.460000 12.160000" fill="none" stroke="gray" stroke-width="0.50" stroke-linecap="round" stroke-linejoin="round" stroke-dasharray="3.00 3.00"/></svg>
