<svg xmlns="http://www.w3.org/2000/svg" viewBox="0 0 160.5 100.5"><path d="M 30.250000 30.250000C 30.250000 27.597835,29.196432 25.054296,27.321068 23.178932C 25.445704 21.303568,22.902165 20.250000,20.250000 20.250000C 17.597835 20.250000,15.054296 21.303568,13.178932 23.178932C 11.303568 25.054296,10.250000 27.597835,10.250000 30.250000C 10.250000 32.902165,11.303568 35.445704,13.178932 37.321068C 15.054296 39.196432,17.597835 40.250000,20.250000 40.250000C 22.902165 40.250000,25.445704 39.196432,27.321068 37.321068C 29.196432 35.445704,30.250000 32.902165,30.250000 30.250000Z" fill="none" stroke="black" stroke-width="0.50" stroke-linecap="round" stroke-linejoin="round"/><path d="M 100.250000 30.250000C 100.250000 27.597835,98.142863 25.054296,94.392136 23.178932C 90.641408 21.303568,85.554330 20.250000,80.250000 20.250000C 74.945670 20.250000,69.858592 21.303568,66.107864 23.178932C 62.357137 25.054296,60.250000 27.597835,60.250000 30.250000C 60.250000 32.902165,62.357137 35.445704,66.107864 37.321068C 69.858592 39.196432,74.945670 40.250000,80.250000 40.250000C 85.554330 40.250000,90.641408 39.196432,94.392136 37.321068C 98.142863 35.445704,100.250000 32.902165,100.250000 30.250000Z" fill="none" stroke="blue" stroke-width="0.50" stroke-linecap="round" stroke-linejoin="round"/><path d="M 150.250000 30.250000C 150.250000 24.945670,149.196432 19.858592,147.321068 16.107864C 145.445704 12.357137,142.902165 10.250000,140.250000 10.250000C 137.597835 10.250000,135.054296 12.357137,133.178932 16.107864C 131.303568 19.858592,130.250000 24.945670,130.250000 30.250000C 130.250000 35.554330,131.303568 40.641408,133.178932 44.392136C 135.054296 48.142863,137.597835 50.250000,140.250000 50.250000C 142.902165 50.250000,145.445704 48.142863,147.321068 44.392136C 149.196432 40.641408,150.250000 35.554330,150.250000 30.250000Z" fill="none" stroke="red" stroke-width="0.50" stroke-linecap="round" stroke-linejoin="round"/><path d="M 20.250000 90.250000L 50.250000 90.250000L 65.250000 60.250000L 35.250000 60.250000L 20.250000 90.250000Z" fill="none" stroke="green" stroke-width="0.50" stroke-linecap="round" stroke-linejoin="round"/><path d="M 135.250000 80.250000C 135.806955 78.393485,134.760745 76.613007,132.341526 75.300253C 129.922307 73.987498,126.328247 73.250000,122.350000 73.250000C 118.371753 73.250000,114.335195 73.987498,111.128323 75.300253C 107.921450 76.613007,105.806955 78.393485,105.250000 80.250000C 104.693045 82.106515,105.739255 83.886993,108.158474 85.199747C 110.577693 86.512502,114.171753 87.250000,118.150000 87.250000C 122.128247 87.250000,126.164805 86.512502,129.371677 85.199747C 132.578550 83.886993,134.693045 82.106515,135.250000 80.250000Z" fill="none" stroke="purple" stroke-width="0.50" stroke-linecap="round" stroke-linejoin="round"/></svg>
