<svg xmlns="http://www.w3.org/2000/svg" width="140.71695793986183" height="80.71695793986183" viewBox="0 0 140.71695793986183 80.71695793986183"><path d="M 20.358479 20.466958C 20.358479 14.944110,21.334790 17.301133,17.429547 13.395890C 13.524304 9.490647,15.881326 10.466958,10.358479 10.466958C 4.835631 10.466958,7.192654 9.490647,3.287411 13.395890C -0.617832 17.301133,0.358479 14.944110,0.358479 20.466958C 0.358479 25.989805,-0.617832 23.632783,3.287411 27.538026C 7.192654 31.443269,4.835631 30.466958,10.358479 30.466958C 15.881326 30.466958,13.524304 31.443269,17.429547 27.538026C 21.334790 23.632783,20.358479 25.989805,20.358479 20.466958Z" fill="none" stroke="black" stroke-width="0.50" stroke-linecap="round" stroke-linejoin="round"/><path d="M 90.358479 20.466958C 90.358479 14.944110,92.311100 17.301133,84.500615 13.395890C 76.690129 9.490647,81.404174 10.466958,70.358479 10.466958C 59.312784 10.466958,64.026829 9.490647,56.216343 13.395890C 48.405858 17.301133,50.358479 14.944110,50.358479 20.466958C 50.358479 25.989805,48.405858 23.632783,56.216343 27.538026C 64.026829 31.443269,59.312784 30.466958,70.358479 30.466958C 81.404174 30.466958,76.690129 31.443269,84.500615 27.538026C 92.311100 23.632783,90.358479 25.989805,90.358479 20.466958Z" fill="none" stroke="blue" stroke-width="0.50" stroke-linecap="round" stroke-linejoin="round"/><path d="M 140.358479 20.466958C 140.358479 9.421263,141.334790 14.135308,137.429547 6.324822C 133.524304 -1.485664,135.881326 0.466958,130.358479 0.466958C 124.835631 0.466958,127.192654 -1.485664,123.287411 6.324822C 119.382168 14.135308,120.358479 9.421263,120.358479 20.466958C 120.358479 31.512653,119.382168 26.798608,123.287411 34.609094C 127.192654 42.419579,124.835631 40.466958,130.358479 40.466958C 135.881326 40.466958,133.524304 42.419579,137.429547 34.609094C 141.334790 26.798608,140.358479 31.512653,140.358479 20.466958Z" fill="none" stroke="red" stroke-width="0.50" stroke-linecap="round" stroke-linejoin="round"/><path d="M 10.358479 80.466958L 40.358479 80.466958L 55.358479 50.466958L 25.358479 50.466958L 10.358479 80.466958Z" fill="none" stroke="green" stroke-width="0.50" stroke-linecap="round" stroke-linejoin="round"/><path d="M 125.358479 70.466958C 126.518277 66.600965,127.487768 68.250881,122.450005 65.517210C 117.412242 62.783540,120.742750 63.466958,112.458479 63.466958C 104.174208 63.466958,107.914767 62.783540,101.236801 65.517210C 94.558836 68.250881,96.518277 66.600965,95.358479 70.466958C 94.198681 74.332951,93.229190 72.683035,98.266953 75.416705C 103.304716 78.150375,99.974208 77.466958,108.258479 77.466958C 116.542750 77.466958,112.802191 78.150375,119.480156 75.416705C 126.158122 72.683035,124.198681 74.332951,125.358479 70.466958Z" fill="none" stroke="purple" stroke-width="0.50" stroke-linecap="round" stroke-linejoin="round"/></svg>
