<svg xmlns="http://www.w3.org/2000/svg" viewBox="0 0 100.5 90.5"><path d="M 10.250000 80.250000L 90.250000 80.250000L 50.250000 10.250000L 10.250000 80.250000Z" fill="none" stroke="black" stroke-width="0.50" stroke-linecap="round" stroke-linejoin="round"/><path d="M 10.250000 80.250000L 70.250000 45.250000" fill="none" stroke="blue" stroke-width="0.50" stroke-linecap="round" stroke-linejoin="round"/><path d="M 90.250000 80.250000L 30.250000 45.250000" fill="none" stroke="blue" stroke-width="0.50" stroke-linecap="round" stroke-linejoin="round"/><path d="M 50.250000 10.250000L 50.250000 80.250000" fill="none" stroke="blue" stroke-width="0.50" stroke-linecap="round" stroke-linejoin="round"/><path d="M 54.250000 56.916667C 54.250000 55.855801,53.828573 54.838385,53.078427 54.088240C 52.328282 53.338094,51.310866 52.916667,50.250000 52.916667C 49.189134 52.916667,48.171718 53.338094,47.421573 54.088240C 46.671427 54.838385,46.250000 55.855801,46.250000 56.916667C 46.250000 57.977533,46.671427 58.994948,47.421573 59.745094C 48.171718 60.495239,49.189134 60.916667,50.250000 60.916667C 51.310866 60.916667,52.328282 60.495239,53.078427 59.745094C 53.828573 58.994948,54.250000 57.977533,54.250000 56.916667Z" fill="red" stroke="black" stroke-width="0.50" stroke-linecap="round" stroke-linejoin="round"/></svg>
