<svg xmlns="http://www.w3.org/2000/svg" width="80.5" height="70.5" viewBox="0 0 80.5 70.5"><path d="M 0.250000 70.250000L 80.250000 70.250000L 40.250000 0.250000L 0.250000 70.250000Z" fill="none" stroke="black" stroke-width="0.50" stroke-linecap="round" stroke-linejoin="round"/><path d="M 0.250000 70.250000L 60.250000 35.250000" fill="none" stroke="blue" stroke-width="0.50" stroke-linecap="round" stroke-linejoin="round"/><path d="M 80.250000 70.250000L 20.250000 35.250000" fill="none" stroke="blue" stroke-width="0.50" stroke-linecap="round" stroke-linejoin="round"/><path d="M 40.250000 0.250000L 40.250000 70.250000" fill="none" stroke="blue" stroke-width="0.50" stroke-linecap="round" stroke-linejoin="round"/><path d="M 44.250000 46.916667C 44.250000 44.707528,44.640524 45.650337,43.078427 44.088240C 41.516330 42.526142,42.459139 42.916667,40.250000 42.916667C 38.040861 42.916667,38.983670 42.526142,37.421573 44.088240C 35.859476 45.650337,36.250000 44.707528,36.250000 46.916667C 36.250000 49.125806,35.859476 48.182997,37.421573 49.745094C 38.983670 51.307191,38.040861 50.916667,40.250000 50.916667C 42.459139 50.916667,41.516330 51.307191,43.078427 49.745094C 44.640524 48.182997,44.250000 49.125806,44.250000 46.916667Z" fill="red" stroke="black" stroke-width="0.50" stroke-linecap="round" stroke-linejoin="round"/></svg>
